 0
SECTION
 2
HEADER
 9
$ACADVER
 1
AC1009
 0
ENDSEC
 0
SECTION
 2
ENTITIES
 0
POLYLINE
 8
TITLE
 66
1
 70
1
 10
0.0
 20
0.0
 30
0.0
 0
VERTEX
 8
TITLE
 10
 -0.1000
 20
  0.1000
 30
0.0
 0
VERTEX
 8
TITLE
 10
  9.6000
 20
  0.1000
 30
0.0
 0
VERTEX
 8
TITLE
 10
  9.6000
 20
  7.3000
 30
0.0
 0
VERTEX
 8
TITLE
 10
 -0.1000
 20
  7.3000
 30
0.0
 0
SEQEND
 8
TITLE
 0
POLYLINE
 8
TITLE
 66
1
 70
1
 10
0.0
 20
0.0
 30
0.0
 0
VERTEX
 8
TITLE
 10
  0.0000
 20
  0.2000
 30
0.0
 0
VERTEX
 8
TITLE
 10
  9.5000
 20
  0.2000
 30
0.0
 0
VERTEX
 8
TITLE
 10
  9.5000
 20
  7.2000
 30
0.0
 0
VERTEX
 8
TITLE
 10
  0.0000
 20
  7.2000
 30
0.0
 0
SEQEND
 8
TITLE
 0
POLYLINE
 8
TITLE
 66
1
 10
0.0
 20
0.0
 30
0.0
 0
VERTEX
 8
TITLE
 10
  2.0600
 20
  0.2000
 30
0.0
 0
VERTEX
 8
TITLE
 10
  2.0600
 20
  0.1000
 30
0.0
 0
SEQEND
 8
TITLE
 0
POLYLINE
 8
TITLE
 66
1
 10
0.0
 20
0.0
 30
0.0
 0
VERTEX
 8
TITLE
 10
  2.0600
 20
  7.2000
 30
0.0
 0
VERTEX
 8
TITLE
 10
  2.0600
 20
  7.3000
 30
0.0
 0
SEQEND
 8
TITLE
 0
POLYLINE
 8
TITLE
 66
1
 10
0.0
 20
0.0
 30
0.0
 0
VERTEX
 8
TITLE
 10
  3.9200
 20
  0.2000
 30
0.0
 0
VERTEX
 8
TITLE
 10
  3.9200
 20
  0.1000
 30
0.0
 0
SEQEND
 8
TITLE
 0
POLYLINE
 8
TITLE
 66
1
 10
0.0
 20
0.0
 30
0.0
 0
VERTEX
 8
TITLE
 10
  3.9200
 20
  7.2000
 30
0.0
 0
VERTEX
 8
TITLE
 10
  3.9200
 20
  7.3000
 30
0.0
 0
SEQEND
 8
TITLE
 0
POLYLINE
 8
TITLE
 66
1
 10
0.0
 20
0.0
 30
0.0
 0
VERTEX
 8
TITLE
 10
  5.7800
 20
  0.2000
 30
0.0
 0
VERTEX
 8
TITLE
 10
  5.7800
 20
  0.1000
 30
0.0
 0
SEQEND
 8
TITLE
 0
POLYLINE
 8
TITLE
 66
1
 10
0.0
 20
0.0
 30
0.0
 0
VERTEX
 8
TITLE
 10
  5.7800
 20
  7.2000
 30
0.0
 0
VERTEX
 8
TITLE
 10
  5.7800
 20
  7.3000
 30
0.0
 0
SEQEND
 8
TITLE
 0
POLYLINE
 8
TITLE
 66
1
 10
0.0
 20
0.0
 30
0.0
 0
VERTEX
 8
TITLE
 10
  7.6400
 20
  0.2000
 30
0.0
 0
VERTEX
 8
TITLE
 10
  7.6400
 20
  0.1000
 30
0.0
 0
SEQEND
 8
TITLE
 0
POLYLINE
 8
TITLE
 66
1
 10
0.0
 20
0.0
 30
0.0
 0
VERTEX
 8
TITLE
 10
  7.6400
 20
  7.2000
 30
0.0
 0
VERTEX
 8
TITLE
 10
  7.6400
 20
  7.3000
 30
0.0
 0
SEQEND
 8
TITLE
 0
TEXT
 8
TITLE
 10
  1.1300
 20
  0.1200
 30
0.0
 40
  0.0500
 1
5
 0
TEXT
 8
TITLE
 10
  1.1300
 20
  7.2200
 30
0.0
 40
  0.0500
 1
5
 0
TEXT
 8
TITLE
 10
  2.9900
 20
  0.1200
 30
0.0
 40
  0.0500
 1
4
 0
TEXT
 8
TITLE
 10
  2.9900
 20
  7.2200
 30
0.0
 40
  0.0500
 1
4
 0
TEXT
 8
TITLE
 10
  4.8500
 20
  0.1200
 30
0.0
 40
  0.0500
 1
3
 0
TEXT
 8
TITLE
 10
  4.8500
 20
  7.2200
 30
0.0
 40
  0.0500
 1
3
 0
TEXT
 8
TITLE
 10
  6.7100
 20
  0.1200
 30
0.0
 40
  0.0500
 1
2
 0
TEXT
 8
TITLE
 10
  6.7100
 20
  7.2200
 30
0.0
 40
  0.0500
 1
2
 0
TEXT
 8
TITLE
 10
  8.5700
 20
  0.1200
 30
0.0
 40
  0.0500
 1
1
 0
TEXT
 8
TITLE
 10
  8.5700
 20
  7.2200
 30
0.0
 40
  0.0500
 1
1
 0
POLYLINE
 8
TITLE
 66
1
 10
0.0
 20
0.0
 30
0.0
 0
VERTEX
 8
TITLE
 10
 -0.1000
 20
  5.3000
 30
0.0
 0
VERTEX
 8
TITLE
 10
  0.0000
 20
  5.3000
 30
0.0
 0
SEQEND
 8
TITLE
 0
POLYLINE
 8
TITLE
 66
1
 10
0.0
 20
0.0
 30
0.0
 0
VERTEX
 8
TITLE
 10
  9.5000
 20
  5.3000
 30
0.0
 0
VERTEX
 8
TITLE
 10
  9.6000
 20
  5.3000
 30
0.0
 0
SEQEND
 8
TITLE
 0
SOLID
 8
TITLE
 10
  0.0000
 20
  3.6000
 30
0.0
 11
 -0.0500
 21
  3.6200
 31
0.0
 12
 -0.0500
 22
  3.5800
 32
0.0
 13
 -0.0500
 23
  3.6000
 33
0.0
 0
SOLID
 8
TITLE
 10
  9.5000
 20
  3.6000
 30
0.0
 11
  9.5500
 21
  3.6200
 31
0.0
 12
  9.5500
 22
  3.5800
 32
0.0
 13
  9.5500
 23
  3.6000
 33
0.0
 0
POLYLINE
 8
TITLE
 66
1
 10
0.0
 20
0.0
 30
0.0
 0
VERTEX
 8
TITLE
 10
 -0.1000
 20
  3.6000
 30
0.0
 0
VERTEX
 8
TITLE
 10
  0.0000
 20
  3.6000
 30
0.0
 0
SEQEND
 8
TITLE
 0
POLYLINE
 8
TITLE
 66
1
 10
0.0
 20
0.0
 30
0.0
 0
VERTEX
 8
TITLE
 10
  9.5000
 20
  3.6000
 30
0.0
 0
VERTEX
 8
TITLE
 10
  9.6000
 20
  3.6000
 30
0.0
 0
SEQEND
 8
TITLE
 0
SOLID
 8
TITLE
 10
  0.0000
 20
  3.6000
 30
0.0
 11
 -0.0500
 21
  3.6200
 31
0.0
 12
 -0.0500
 22
  3.5800
 32
0.0
 13
 -0.0500
 23
  3.6000
 33
0.0
 0
SOLID
 8
TITLE
 10
  9.5000
 20
  3.6000
 30
0.0
 11
  9.5500
 21
  3.6200
 31
0.0
 12
  9.5500
 22
  3.5800
 32
0.0
 13
  9.5500
 23
  3.6000
 33
0.0
 0
POLYLINE
 8
TITLE
 66
1
 10
0.0
 20
0.0
 30
0.0
 0
VERTEX
 8
TITLE
 10
 -0.1000
 20
  1.9000
 30
0.0
 0
VERTEX
 8
TITLE
 10
  0.0000
 20
  1.9000
 30
0.0
 0
SEQEND
 8
TITLE
 0
POLYLINE
 8
TITLE
 66
1
 10
0.0
 20
0.0
 30
0.0
 0
VERTEX
 8
TITLE
 10
  9.5000
 20
  1.9000
 30
0.0
 0
VERTEX
 8
TITLE
 10
  9.6000
 20
  1.9000
 30
0.0
 0
SEQEND
 8
TITLE
 0
SOLID
 8
TITLE
 10
  0.0000
 20
  3.6000
 30
0.0
 11
 -0.0500
 21
  3.6200
 31
0.0
 12
 -0.0500
 22
  3.5800
 32
0.0
 13
 -0.0500
 23
  3.6000
 33
0.0
 0
SOLID
 8
TITLE
 10
  9.5000
 20
  3.6000
 30
0.0
 11
  9.5500
 21
  3.6200
 31
0.0
 12
  9.5500
 22
  3.5800
 32
0.0
 13
  9.5500
 23
  3.6000
 33
0.0
 0
TEXT
 8
TITLE
 10
 -0.0800
 20
  6.1500
 30
0.0
 40
  0.0500
 1
D
 0
TEXT
 8
TITLE
 10
  9.5200
 20
  6.1500
 30
0.0
 40
  0.0500
 1
D
 0
TEXT
 8
TITLE
 10
 -0.0800
 20
  4.4500
 30
0.0
 40
  0.0500
 1
C
 0
TEXT
 8
TITLE
 10
  9.5200
 20
  4.4500
 30
0.0
 40
  0.0500
 1
C
 0
TEXT
 8
TITLE
 10
 -0.0800
 20
  2.7500
 30
0.0
 40
  0.0500
 1
B
 0
TEXT
 8
TITLE
 10
  9.5200
 20
  2.7500
 30
0.0
 40
  0.0500
 1
B
 0
TEXT
 8
TITLE
 10
 -0.0800
 20
  1.0500
 30
0.0
 40
  0.0500
 1
A
 0
TEXT
 8
TITLE
 10
  9.5200
 20
  1.0500
 30
0.0
 40
  0.0500
 1
A
 0
TEXT
 8
TITLE
 10
  6.3000
 20
  0.4186
 30
0.0
 40
  0.0514
 1
<Doc>
 0
TEXT
 8
TITLE
 10
  9.3000
 20
  0.4186
 30
0.0
 40
  0.0514
 1
<RevCode>
 0
TEXT
 8
TITLE
 10
  6.3000
 20
  0.7186
 30
0.0
 40
  0.0514
 1
<Title>
 0
TEXT
 8
TITLE
 10
  6.0000
 20
  0.4186
 30
0.0
 40
  0.0514
 1
A
 0
TEXT
 8
TITLE
 10
  8.4000
 20
  0.2186
 30
0.0
 40
  0.0514
 1
1
 0
TEXT
 8
TITLE
 10
  9.0000
 20
  0.2186
 30
0.0
 40
  0.0514
 1
1
 0
TEXT
 8
TITLE
 10
  6.4200
 20
  0.2186
 30
0.0
 40
  0.0514
 1
Monday, July 13, 2009
 0
TEXT
 8
PARTTEXT
 10
  5.9000
 20
  0.8186
 30
0.0
 40
  0.0514
 1
Title
 0
TEXT
 8
PARTTEXT
 10
  5.9000
 20
  0.5186
 30
0.0
 40
  0.0514
 1
Size
 0
TEXT
 8
PARTTEXT
 10
  6.3000
 20
  0.5186
 30
0.0
 40
  0.0514
 1
Document Number
 0
TEXT
 8
PARTTEXT
 10
  9.2000
 20
  0.5186
 30
0.0
 40
  0.0514
 1
Rev
 0
TEXT
 8
PARTTEXT
 10
  5.9000
 20
  0.2186
 30
0.0
 40
  0.0514
 1
Date:
 0
TEXT
 8
PARTTEXT
 10
  7.9000
 20
  0.2186
 30
0.0
 40
  0.0514
 1
Sheet
 0
POLYLINE
 8
TITLE
 66
1
 70
1
 10
0.0
 20
0.0
 30
0.0
 0
VERTEX
 8
TITLE
 10
  5.9000
 20
  1.1000
 30
0.0
 0
VERTEX
 8
TITLE
 10
  9.5000
 20
  1.1000
 30
0.0
 0
VERTEX
 8
TITLE
 10
  9.5000
 20
  0.9000
 30
0.0
 0
VERTEX
 8
TITLE
 10
  5.9000
 20
  0.9000
 30
0.0
 0
SEQEND
 8
TITLE
 0
POLYLINE
 8
TITLE
 66
1
 70
1
 10
0.0
 20
0.0
 30
0.0
 0
VERTEX
 8
TITLE
 10
  5.9000
 20
  0.9000
 30
0.0
 0
VERTEX
 8
TITLE
 10
  9.5000
 20
  0.9000
 30
0.0
 0
VERTEX
 8
TITLE
 10
  9.5000
 20
  0.6000
 30
0.0
 0
VERTEX
 8
TITLE
 10
  5.9000
 20
  0.6000
 30
0.0
 0
SEQEND
 8
TITLE
 0
POLYLINE
 8
TITLE
 66
1
 70
1
 10
0.0
 20
0.0
 30
0.0
 0
VERTEX
 8
TITLE
 10
  5.9000
 20
  0.6000
 30
0.0
 0
VERTEX
 8
TITLE
 10
  6.2000
 20
  0.6000
 30
0.0
 0
VERTEX
 8
TITLE
 10
  6.2000
 20
  0.3000
 30
0.0
 0
VERTEX
 8
TITLE
 10
  5.9000
 20
  0.3000
 30
0.0
 0
SEQEND
 8
TITLE
 0
POLYLINE
 8
TITLE
 66
1
 70
1
 10
0.0
 20
0.0
 30
0.0
 0
VERTEX
 8
TITLE
 10
  6.2000
 20
  0.6000
 30
0.0
 0
VERTEX
 8
TITLE
 10
  9.2000
 20
  0.6000
 30
0.0
 0
VERTEX
 8
TITLE
 10
  9.2000
 20
  0.3000
 30
0.0
 0
VERTEX
 8
TITLE
 10
  6.2000
 20
  0.3000
 30
0.0
 0
SEQEND
 8
TITLE
 0
POLYLINE
 8
TITLE
 66
1
 70
1
 10
0.0
 20
0.0
 30
0.0
 0
VERTEX
 8
TITLE
 10
  9.2000
 20
  0.6000
 30
0.0
 0
VERTEX
 8
TITLE
 10
  9.5000
 20
  0.6000
 30
0.0
 0
VERTEX
 8
TITLE
 10
  9.5000
 20
  0.3000
 30
0.0
 0
VERTEX
 8
TITLE
 10
  9.2000
 20
  0.3000
 30
0.0
 0
SEQEND
 8
TITLE
 0
POLYLINE
 8
TITLE
 66
1
 70
1
 10
0.0
 20
0.0
 30
0.0
 0
VERTEX
 8
TITLE
 10
  5.9000
 20
  0.3000
 30
0.0
 0
VERTEX
 8
TITLE
 10
  7.9000
 20
  0.3000
 30
0.0
 0
VERTEX
 8
TITLE
 10
  7.9000
 20
  0.2000
 30
0.0
 0
VERTEX
 8
TITLE
 10
  5.9000
 20
  0.2000
 30
0.0
 0
SEQEND
 8
TITLE
 0
POLYLINE
 8
TITLE
 66
1
 70
1
 10
0.0
 20
0.0
 30
0.0
 0
VERTEX
 8
TITLE
 10
  7.9000
 20
  0.3000
 30
0.0
 0
VERTEX
 8
TITLE
 10
  9.5000
 20
  0.3000
 30
0.0
 0
VERTEX
 8
TITLE
 10
  9.5000
 20
  0.2000
 30
0.0
 0
VERTEX
 8
TITLE
 10
  7.9000
 20
  0.2000
 30
0.0
 0
SEQEND
 8
TITLE
 0
TEXT
 8
PARTTEXT
 10
  8.7000
 20
  0.2186
 30
0.0
 40
  0.0514
 1
of
 0
TEXT
 8
PARTTEXT
 10
  7.0000
 20
  2.8186
 30
0.0
 40
  0.0514
 1
C6
 0
TEXT
 8
PARTTEXT
 10
  7.0000
 20
  2.7186
 30
0.0
 40
  0.0514
 1
100nF
 0
LINE
 8
PARTS
 10
  6.9000
 20
  3.0000
 30
0.0
 11
  6.9000
 21
  2.9000
 31
0.0
 0
LINE
 8
PARTS
 10
  6.9000
 20
  2.7000
 30
0.0
 11
  6.9000
 21
  2.8000
 31
0.0
 0
POLYLINE
 8
PARTS
 66
1
 10
0.0
 20
0.0
 30
0.0
 0
VERTEX
 8
PARTS
 10
  6.9000
 20
  2.9000
 30
0.0
 0
VERTEX
 8
PARTS
 10
  6.9000
 20
  2.8800
 30
0.0
 0
SEQEND
 8
PARTS
 0
POLYLINE
 8
PARTS
 66
1
 10
0.0
 20
0.0
 30
0.0
 0
VERTEX
 8
PARTS
 10
  6.8100
 20
  2.8300
 30
0.0
 0
VERTEX
 8
PARTS
 10
  6.9900
 20
  2.8300
 30
0.0
 0
SEQEND
 8
PARTS
 0
POLYLINE
 8
PARTS
 66
1
 10
0.0
 20
0.0
 30
0.0
 0
VERTEX
 8
PARTS
 10
  6.8100
 20
  2.8800
 30
0.0
 0
VERTEX
 8
PARTS
 10
  6.9900
 20
  2.8800
 30
0.0
 0
SEQEND
 8
PARTS
 0
POLYLINE
 8
PARTS
 66
1
 10
0.0
 20
0.0
 30
0.0
 0
VERTEX
 8
PARTS
 10
  6.9000
 20
  2.8000
 30
0.0
 0
VERTEX
 8
PARTS
 10
  6.9000
 20
  2.8300
 30
0.0
 0
SEQEND
 8
PARTS
 0
TEXT
 8
PARTTEXT
 10
  5.8000
 20
  5.0186
 30
0.0
 40
  0.0514
 1
C9
 0
TEXT
 8
PARTTEXT
 10
  5.8000
 20
  4.9186
 30
0.0
 40
  0.0514
 1
100nF
 0
LINE
 8
PARTS
 10
  5.7000
 20
  5.2000
 30
0.0
 11
  5.7000
 21
  5.1000
 31
0.0
 0
LINE
 8
PARTS
 10
  5.7000
 20
  4.9000
 30
0.0
 11
  5.7000
 21
  5.0000
 31
0.0
 0
POLYLINE
 8
PARTS
 66
1
 10
0.0
 20
0.0
 30
0.0
 0
VERTEX
 8
PARTS
 10
  5.7000
 20
  5.1000
 30
0.0
 0
VERTEX
 8
PARTS
 10
  5.7000
 20
  5.0800
 30
0.0
 0
SEQEND
 8
PARTS
 0
POLYLINE
 8
PARTS
 66
1
 10
0.0
 20
0.0
 30
0.0
 0
VERTEX
 8
PARTS
 10
  5.6100
 20
  5.0300
 30
0.0
 0
VERTEX
 8
PARTS
 10
  5.7900
 20
  5.0300
 30
0.0
 0
SEQEND
 8
PARTS
 0
POLYLINE
 8
PARTS
 66
1
 10
0.0
 20
0.0
 30
0.0
 0
VERTEX
 8
PARTS
 10
  5.6100
 20
  5.0800
 30
0.0
 0
VERTEX
 8
PARTS
 10
  5.7900
 20
  5.0800
 30
0.0
 0
SEQEND
 8
PARTS
 0
POLYLINE
 8
PARTS
 66
1
 10
0.0
 20
0.0
 30
0.0
 0
VERTEX
 8
PARTS
 10
  5.7000
 20
  5.0000
 30
0.0
 0
VERTEX
 8
PARTS
 10
  5.7000
 20
  5.0300
 30
0.0
 0
SEQEND
 8
PARTS
 0
TEXT
 8
PARTTEXT
 10
  1.9500
 20
  5.4086
 30
0.0
 40
  0.0514
 1
U1
 0
TEXT
 8
PARTTEXT
 10
  1.9500
 20
  5.3086
 30
0.0
 40
  0.0514
 1
18F2620
 0
LINE
 8
PARTS
 10
  1.6000
 20
  4.2000
 30
0.0
 11
  1.9000
 21
  4.2000
 31
0.0
 0
TEXT
 8
PARTS
 10
  1.9900
 20
  4.1750
 30
0.0
 40
  0.0500
 1
CLKI
 0
TEXT
 8
PARTS
 10
  1.8000
 20
  4.2300
 30
0.0
 40
  0.0500
 1
9
 0
LINE
 8
PARTS
 10
  1.6000
 20
  4.1000
 30
0.0
 11
  1.9000
 21
  4.1000
 31
0.0
 0
TEXT
 8
PARTS
 10
  1.9900
 20
  4.0750
 30
0.0
 40
  0.0500
 1
CLKO
 0
TEXT
 8
PARTS
 10
  1.7600
 20
  4.1300
 30
0.0
 40
  0.0500
 1
10
 0
LINE
 8
PARTS
 10
  1.6000
 20
  5.2000
 30
0.0
 11
  1.9000
 21
  5.2000
 31
0.0
 0
TEXT
 8
PARTS
 10
  1.9900
 20
  5.1750
 30
0.0
 40
  0.0500
 1
%%oMCLR%%o
 0
TEXT
 8
PARTS
 10
  1.8000
 20
  5.2300
 30
0.0
 40
  0.0500
 1
1
 0
LINE
 8
PARTS
 10
  3.0000
 20
  4.3000
 30
0.0
 11
  2.7000
 21
  4.3000
 31
0.0
 0
TEXT
 8
PARTS
 10
  2.4900
 20
  4.2750
 30
0.0
 40
  0.0500
 1
VCC
 0
TEXT
 8
PARTS
 10
  2.7600
 20
  4.3300
 30
0.0
 40
  0.0500
 1
20
 0
LINE
 8
PARTS
 10
  1.6000
 20
  4.4000
 30
0.0
 11
  1.9000
 21
  4.4000
 31
0.0
 0
TEXT
 8
PARTS
 10
  1.9900
 20
  4.3750
 30
0.0
 40
  0.0500
 1
GND
 0
TEXT
 8
PARTS
 10
  1.8000
 20
  4.4300
 30
0.0
 40
  0.0500
 1
8
 0
LINE
 8
PARTS
 10
  1.6000
 20
  4.7000
 30
0.0
 11
  1.9000
 21
  4.7000
 31
0.0
 0
LINE
 8
PARTS
 10
  1.5750
 20
  4.7250
 30
0.0
 11
  1.6250
 21
  4.6750
 31
0.0
 0
LINE
 8
PARTS
 10
  1.6250
 20
  4.7250
 30
0.0
 11
  1.5750
 21
  4.6750
 31
0.0
 0
TEXT
 8
PARTS
 10
  1.9900
 20
  4.6750
 30
0.0
 40
  0.0500
 1
RA3
 0
TEXT
 8
PARTS
 10
  1.8000
 20
  4.7300
 30
0.0
 40
  0.0500
 1
5
 0
LINE
 8
PARTS
 10
  1.6000
 20
  4.8000
 30
0.0
 11
  1.9000
 21
  4.8000
 31
0.0
 0
LINE
 8
PARTS
 10
  1.5750
 20
  4.8250
 30
0.0
 11
  1.6250
 21
  4.7750
 31
0.0
 0
LINE
 8
PARTS
 10
  1.6250
 20
  4.8250
 30
0.0
 11
  1.5750
 21
  4.7750
 31
0.0
 0
TEXT
 8
PARTS
 10
  1.9900
 20
  4.7750
 30
0.0
 40
  0.0500
 1
RA2
 0
TEXT
 8
PARTS
 10
  1.8000
 20
  4.8300
 30
0.0
 40
  0.0500
 1
4
 0
LINE
 8
PARTS
 10
  1.6000
 20
  4.9000
 30
0.0
 11
  1.9000
 21
  4.9000
 31
0.0
 0
LINE
 8
PARTS
 10
  1.5750
 20
  4.9250
 30
0.0
 11
  1.6250
 21
  4.8750
 31
0.0
 0
LINE
 8
PARTS
 10
  1.6250
 20
  4.9250
 30
0.0
 11
  1.5750
 21
  4.8750
 31
0.0
 0
TEXT
 8
PARTS
 10
  1.9900
 20
  4.8750
 30
0.0
 40
  0.0500
 1
RA1
 0
TEXT
 8
PARTS
 10
  1.8000
 20
  4.9300
 30
0.0
 40
  0.0500
 1
3
 0
LINE
 8
PARTS
 10
  1.6000
 20
  5.0000
 30
0.0
 11
  1.9000
 21
  5.0000
 31
0.0
 0
LINE
 8
PARTS
 10
  1.5750
 20
  5.0250
 30
0.0
 11
  1.6250
 21
  4.9750
 31
0.0
 0
LINE
 8
PARTS
 10
  1.6250
 20
  5.0250
 30
0.0
 11
  1.5750
 21
  4.9750
 31
0.0
 0
TEXT
 8
PARTS
 10
  1.9900
 20
  4.9750
 30
0.0
 40
  0.0500
 1
RA0
 0
TEXT
 8
PARTS
 10
  1.8000
 20
  5.0300
 30
0.0
 40
  0.0500
 1
2
 0
LINE
 8
PARTS
 10
  3.0000
 20
  5.2000
 30
0.0
 11
  2.7000
 21
  5.2000
 31
0.0
 0
TEXT
 8
PARTS
 10
  2.4900
 20
  5.1750
 30
0.0
 40
  0.0500
 1
RB7
 0
TEXT
 8
PARTS
 10
  2.7600
 20
  5.2300
 30
0.0
 40
  0.0500
 1
28
 0
LINE
 8
PARTS
 10
  3.0000
 20
  5.1000
 30
0.0
 11
  2.7000
 21
  5.1000
 31
0.0
 0
TEXT
 8
PARTS
 10
  2.4900
 20
  5.0750
 30
0.0
 40
  0.0500
 1
RB6
 0
TEXT
 8
PARTS
 10
  2.7600
 20
  5.1300
 30
0.0
 40
  0.0500
 1
27
 0
LINE
 8
PARTS
 10
  3.0000
 20
  5.0000
 30
0.0
 11
  2.7000
 21
  5.0000
 31
0.0
 0
LINE
 8
PARTS
 10
  3.0250
 20
  5.0250
 30
0.0
 11
  2.9750
 21
  4.9750
 31
0.0
 0
LINE
 8
PARTS
 10
  2.9750
 20
  5.0250
 30
0.0
 11
  3.0250
 21
  4.9750
 31
0.0
 0
TEXT
 8
PARTS
 10
  2.4900
 20
  4.9750
 30
0.0
 40
  0.0500
 1
RB5
 0
TEXT
 8
PARTS
 10
  2.7600
 20
  5.0300
 30
0.0
 40
  0.0500
 1
26
 0
LINE
 8
PARTS
 10
  3.0000
 20
  4.9000
 30
0.0
 11
  2.7000
 21
  4.9000
 31
0.0
 0
LINE
 8
PARTS
 10
  3.0250
 20
  4.9250
 30
0.0
 11
  2.9750
 21
  4.8750
 31
0.0
 0
LINE
 8
PARTS
 10
  2.9750
 20
  4.9250
 30
0.0
 11
  3.0250
 21
  4.8750
 31
0.0
 0
TEXT
 8
PARTS
 10
  2.4900
 20
  4.8750
 30
0.0
 40
  0.0500
 1
RB4
 0
TEXT
 8
PARTS
 10
  2.7600
 20
  4.9300
 30
0.0
 40
  0.0500
 1
25
 0
LINE
 8
PARTS
 10
  3.0000
 20
  4.8000
 30
0.0
 11
  2.7000
 21
  4.8000
 31
0.0
 0
LINE
 8
PARTS
 10
  3.0250
 20
  4.8250
 30
0.0
 11
  2.9750
 21
  4.7750
 31
0.0
 0
LINE
 8
PARTS
 10
  2.9750
 20
  4.8250
 30
0.0
 11
  3.0250
 21
  4.7750
 31
0.0
 0
TEXT
 8
PARTS
 10
  2.4900
 20
  4.7750
 30
0.0
 40
  0.0500
 1
RB3
 0
TEXT
 8
PARTS
 10
  2.7600
 20
  4.8300
 30
0.0
 40
  0.0500
 1
24
 0
LINE
 8
PARTS
 10
  3.0000
 20
  4.7000
 30
0.0
 11
  2.7000
 21
  4.7000
 31
0.0
 0
LINE
 8
PARTS
 10
  3.0250
 20
  4.7250
 30
0.0
 11
  2.9750
 21
  4.6750
 31
0.0
 0
LINE
 8
PARTS
 10
  2.9750
 20
  4.7250
 30
0.0
 11
  3.0250
 21
  4.6750
 31
0.0
 0
TEXT
 8
PARTS
 10
  2.4900
 20
  4.6750
 30
0.0
 40
  0.0500
 1
RB2
 0
TEXT
 8
PARTS
 10
  2.7600
 20
  4.7300
 30
0.0
 40
  0.0500
 1
23
 0
LINE
 8
PARTS
 10
  3.0000
 20
  4.6000
 30
0.0
 11
  2.7000
 21
  4.6000
 31
0.0
 0
TEXT
 8
PARTS
 10
  2.4900
 20
  4.5750
 30
0.0
 40
  0.0500
 1
RB1
 0
TEXT
 8
PARTS
 10
  2.7600
 20
  4.6300
 30
0.0
 40
  0.0500
 1
22
 0
LINE
 8
PARTS
 10
  3.0000
 20
  4.5000
 30
0.0
 11
  2.7000
 21
  4.5000
 31
0.0
 0
TEXT
 8
PARTS
 10
  2.4900
 20
  4.4750
 30
0.0
 40
  0.0500
 1
RB0
 0
TEXT
 8
PARTS
 10
  2.7600
 20
  4.5300
 30
0.0
 40
  0.0500
 1
21
 0
LINE
 8
PARTS
 10
  3.0000
 20
  4.0000
 30
0.0
 11
  2.7000
 21
  4.0000
 31
0.0
 0
TEXT
 8
PARTS
 10
  2.4900
 20
  3.9750
 30
0.0
 40
  0.0500
 1
RC7
 0
TEXT
 8
PARTS
 10
  2.7600
 20
  4.0300
 30
0.0
 40
  0.0500
 1
18
 0
LINE
 8
PARTS
 10
  3.0000
 20
  3.9000
 30
0.0
 11
  2.7000
 21
  3.9000
 31
0.0
 0
TEXT
 8
PARTS
 10
  2.4900
 20
  3.8750
 30
0.0
 40
  0.0500
 1
RC6
 0
TEXT
 8
PARTS
 10
  2.7600
 20
  3.9300
 30
0.0
 40
  0.0500
 1
17
 0
LINE
 8
PARTS
 10
  3.0000
 20
  3.7000
 30
0.0
 11
  2.7000
 21
  3.7000
 31
0.0
 0
LINE
 8
PARTS
 10
  3.0250
 20
  3.7250
 30
0.0
 11
  2.9750
 21
  3.6750
 31
0.0
 0
LINE
 8
PARTS
 10
  2.9750
 20
  3.7250
 30
0.0
 11
  3.0250
 21
  3.6750
 31
0.0
 0
TEXT
 8
PARTS
 10
  2.4900
 20
  3.6750
 30
0.0
 40
  0.0500
 1
RC5
 0
TEXT
 8
PARTS
 10
  2.7600
 20
  3.7300
 30
0.0
 40
  0.0500
 1
16
 0
LINE
 8
PARTS
 10
  3.0000
 20
  3.6000
 30
0.0
 11
  2.7000
 21
  3.6000
 31
0.0
 0
LINE
 8
PARTS
 10
  3.0250
 20
  3.6250
 30
0.0
 11
  2.9750
 21
  3.5750
 31
0.0
 0
LINE
 8
PARTS
 10
  2.9750
 20
  3.6250
 30
0.0
 11
  3.0250
 21
  3.5750
 31
0.0
 0
TEXT
 8
PARTS
 10
  2.4900
 20
  3.5750
 30
0.0
 40
  0.0500
 1
RC4
 0
TEXT
 8
PARTS
 10
  2.7600
 20
  3.6300
 30
0.0
 40
  0.0500
 1
15
 0
LINE
 8
PARTS
 10
  1.6000
 20
  3.6000
 30
0.0
 11
  1.9000
 21
  3.6000
 31
0.0
 0
LINE
 8
PARTS
 10
  1.5750
 20
  3.6250
 30
0.0
 11
  1.6250
 21
  3.5750
 31
0.0
 0
LINE
 8
PARTS
 10
  1.6250
 20
  3.6250
 30
0.0
 11
  1.5750
 21
  3.5750
 31
0.0
 0
TEXT
 8
PARTS
 10
  1.9900
 20
  3.5750
 30
0.0
 40
  0.0500
 1
RC3
 0
TEXT
 8
PARTS
 10
  1.7600
 20
  3.6300
 30
0.0
 40
  0.0500
 1
14
 0
LINE
 8
PARTS
 10
  1.6000
 20
  3.7000
 30
0.0
 11
  1.9000
 21
  3.7000
 31
0.0
 0
LINE
 8
PARTS
 10
  1.5750
 20
  3.7250
 30
0.0
 11
  1.6250
 21
  3.6750
 31
0.0
 0
LINE
 8
PARTS
 10
  1.6250
 20
  3.7250
 30
0.0
 11
  1.5750
 21
  3.6750
 31
0.0
 0
TEXT
 8
PARTS
 10
  1.9900
 20
  3.6750
 30
0.0
 40
  0.0500
 1
RC2
 0
TEXT
 8
PARTS
 10
  1.7600
 20
  3.7300
 30
0.0
 40
  0.0500
 1
13
 0
LINE
 8
PARTS
 10
  1.6000
 20
  3.8000
 30
0.0
 11
  1.9000
 21
  3.8000
 31
0.0
 0
LINE
 8
PARTS
 10
  1.5750
 20
  3.8250
 30
0.0
 11
  1.6250
 21
  3.7750
 31
0.0
 0
LINE
 8
PARTS
 10
  1.6250
 20
  3.8250
 30
0.0
 11
  1.5750
 21
  3.7750
 31
0.0
 0
TEXT
 8
PARTS
 10
  1.9900
 20
  3.7750
 30
0.0
 40
  0.0500
 1
RC1
 0
TEXT
 8
PARTS
 10
  1.7600
 20
  3.8300
 30
0.0
 40
  0.0500
 1
12
 0
LINE
 8
PARTS
 10
  1.6000
 20
  3.9000
 30
0.0
 11
  1.9000
 21
  3.9000
 31
0.0
 0
LINE
 8
PARTS
 10
  1.5750
 20
  3.9250
 30
0.0
 11
  1.6250
 21
  3.8750
 31
0.0
 0
LINE
 8
PARTS
 10
  1.6250
 20
  3.9250
 30
0.0
 11
  1.5750
 21
  3.8750
 31
0.0
 0
TEXT
 8
PARTS
 10
  1.9900
 20
  3.8750
 30
0.0
 40
  0.0500
 1
RC0
 0
TEXT
 8
PARTS
 10
  1.7600
 20
  3.9300
 30
0.0
 40
  0.0500
 1
11
 0
LINE
 8
PARTS
 10
  1.6000
 20
  4.6000
 30
0.0
 11
  1.9000
 21
  4.6000
 31
0.0
 0
TEXT
 8
PARTS
 10
  1.9900
 20
  4.5750
 30
0.0
 40
  0.0500
 1
RA4
 0
TEXT
 8
PARTS
 10
  1.8000
 20
  4.6300
 30
0.0
 40
  0.0500
 1
6
 0
LINE
 8
PARTS
 10
  1.6000
 20
  4.5000
 30
0.0
 11
  1.9000
 21
  4.5000
 31
0.0
 0
LINE
 8
PARTS
 10
  1.5750
 20
  4.5250
 30
0.0
 11
  1.6250
 21
  4.4750
 31
0.0
 0
LINE
 8
PARTS
 10
  1.6250
 20
  4.5250
 30
0.0
 11
  1.5750
 21
  4.4750
 31
0.0
 0
TEXT
 8
PARTS
 10
  1.9900
 20
  4.4750
 30
0.0
 40
  0.0500
 1
RA5
 0
TEXT
 8
PARTS
 10
  1.8000
 20
  4.5300
 30
0.0
 40
  0.0500
 1
7
 0
LINE
 8
PARTS
 10
  3.0000
 20
  4.2000
 30
0.0
 11
  2.7000
 21
  4.2000
 31
0.0
 0
TEXT
 8
PARTS
 10
  2.4900
 20
  4.1750
 30
0.0
 40
  0.0500
 1
GND
 0
TEXT
 8
PARTS
 10
  2.7600
 20
  4.2300
 30
0.0
 40
  0.0500
 1
19
 0
POLYLINE
 8
PARTS
 66
1
 70
1
 10
0.0
 20
0.0
 30
0.0
 0
VERTEX
 8
PARTS
 10
  1.9000
 20
  5.3000
 30
0.0
 0
VERTEX
 8
PARTS
 10
  2.7000
 20
  5.3000
 30
0.0
 0
VERTEX
 8
PARTS
 10
  2.7000
 20
  3.5000
 30
0.0
 0
VERTEX
 8
PARTS
 10
  1.9000
 20
  3.5000
 30
0.0
 0
SEQEND
 8
PARTS
 0
TEXT
 8
PARTTEXT
 10
  6.7000
 20
  1.8186
 30
0.0
 40
  0.0514
 1
C8
 0
TEXT
 8
PARTTEXT
 10
  6.7000
 20
  1.7186
 30
0.0
 40
  0.0514
 1
100nF
 0
LINE
 8
PARTS
 10
  6.6000
 20
  2.0000
 30
0.0
 11
  6.6000
 21
  1.9000
 31
0.0
 0
LINE
 8
PARTS
 10
  6.6000
 20
  1.7000
 30
0.0
 11
  6.6000
 21
  1.8000
 31
0.0
 0
POLYLINE
 8
PARTS
 66
1
 10
0.0
 20
0.0
 30
0.0
 0
VERTEX
 8
PARTS
 10
  6.6000
 20
  1.9000
 30
0.0
 0
VERTEX
 8
PARTS
 10
  6.6000
 20
  1.8800
 30
0.0
 0
SEQEND
 8
PARTS
 0
POLYLINE
 8
PARTS
 66
1
 10
0.0
 20
0.0
 30
0.0
 0
VERTEX
 8
PARTS
 10
  6.5100
 20
  1.8300
 30
0.0
 0
VERTEX
 8
PARTS
 10
  6.6900
 20
  1.8300
 30
0.0
 0
SEQEND
 8
PARTS
 0
POLYLINE
 8
PARTS
 66
1
 10
0.0
 20
0.0
 30
0.0
 0
VERTEX
 8
PARTS
 10
  6.5100
 20
  1.8800
 30
0.0
 0
VERTEX
 8
PARTS
 10
  6.6900
 20
  1.8800
 30
0.0
 0
SEQEND
 8
PARTS
 0
POLYLINE
 8
PARTS
 66
1
 10
0.0
 20
0.0
 30
0.0
 0
VERTEX
 8
PARTS
 10
  6.6000
 20
  1.8000
 30
0.0
 0
VERTEX
 8
PARTS
 10
  6.6000
 20
  1.8300
 30
0.0
 0
SEQEND
 8
PARTS
 0
TEXT
 8
PARTTEXT
 10
  3.9900
 20
  4.2186
 30
0.0
 40
  0.0514
 1
C3
 0
TEXT
 8
PARTTEXT
 10
  3.9900
 20
  4.1286
 30
0.0
 40
  0.0514
 1
10uF
 0
LINE
 8
PARTS
 10
  3.8000
 20
  4.4000
 30
0.0
 11
  3.8000
 21
  4.3000
 31
0.0
 0
LINE
 8
PARTS
 10
  3.8000
 20
  4.1000
 30
0.0
 11
  3.8000
 21
  4.2000
 31
0.0
 0
POLYLINE
 8
PARTS
 66
1
 10
0.0
 20
0.0
 30
0.0
 0
VERTEX
 8
PARTS
 10
  3.7000
 20
  4.3000
 30
0.0
 0
VERTEX
 8
PARTS
 10
  3.9000
 20
  4.3000
 30
0.0
 0
SEQEND
 8
PARTS
 0
POLYLINE
 8
PARTS
 66
1
 10
0.0
 20
0.0
 30
0.0
 0
VERTEX
 8
PARTS
 10
  3.8000
 20
  4.2600
 30
0.0
 0
VERTEX
 8
PARTS
 10
  3.8000
 20
  4.2000
 30
0.0
 0
SEQEND
 8
PARTS
 0
POLYLINE
 8
PARTS
 66
1
 10
0.0
 20
0.0
 30
0.0
 0
VERTEX
 8
PARTS
 10
  3.9000
 20
  4.2300
 30
0.0
 42
  0.1654
 0
VERTEX
 8
PARTS
 10
  3.8000
 20
  4.2600
 30
0.0
 0
SEQEND
 8
PARTS
 0
POLYLINE
 8
PARTS
 66
1
 10
0.0
 20
0.0
 30
0.0
 0
VERTEX
 8
PARTS
 10
  3.8000
 20
  4.2600
 30
0.0
 42
  0.1654
 0
VERTEX
 8
PARTS
 10
  3.7000
 20
  4.2300
 30
0.0
 0
SEQEND
 8
PARTS
 0
TEXT
 8
PARTTEXT
 10
  1.1000
 20
  4.7186
 30
0.0
 40
  0.0514
 1
C2
 0
TEXT
 8
PARTTEXT
 10
  1.1000
 20
  4.6186
 30
0.0
 40
  0.0514
 1
22pF
 0
LINE
 8
PARTS
 10
  1.0000
 20
  4.9000
 30
0.0
 11
  1.0000
 21
  4.8000
 31
0.0
 0
LINE
 8
PARTS
 10
  1.0000
 20
  4.6000
 30
0.0
 11
  1.0000
 21
  4.7000
 31
0.0
 0
POLYLINE
 8
PARTS
 66
1
 10
0.0
 20
0.0
 30
0.0
 0
VERTEX
 8
PARTS
 10
  1.0000
 20
  4.8000
 30
0.0
 0
VERTEX
 8
PARTS
 10
  1.0000
 20
  4.7800
 30
0.0
 0
SEQEND
 8
PARTS
 0
POLYLINE
 8
PARTS
 66
1
 10
0.0
 20
0.0
 30
0.0
 0
VERTEX
 8
PARTS
 10
  0.9100
 20
  4.7300
 30
0.0
 0
VERTEX
 8
PARTS
 10
  1.0900
 20
  4.7300
 30
0.0
 0
SEQEND
 8
PARTS
 0
POLYLINE
 8
PARTS
 66
1
 10
0.0
 20
0.0
 30
0.0
 0
VERTEX
 8
PARTS
 10
  0.9100
 20
  4.7800
 30
0.0
 0
VERTEX
 8
PARTS
 10
  1.0900
 20
  4.7800
 30
0.0
 0
SEQEND
 8
PARTS
 0
POLYLINE
 8
PARTS
 66
1
 10
0.0
 20
0.0
 30
0.0
 0
VERTEX
 8
PARTS
 10
  1.0000
 20
  4.7000
 30
0.0
 0
VERTEX
 8
PARTS
 10
  1.0000
 20
  4.7300
 30
0.0
 0
SEQEND
 8
PARTS
 0
TEXT
 8
PARTTEXT
 10
  1.8000
 20
  6.0186
 30
0.0
 40
  0.0514
 1
D1
 0
TEXT
 8
PARTTEXT
 10
  1.8000
 20
  5.9186
 30
0.0
 40
  0.0514
 1
1N4148
 0
LINE
 8
PARTS
 10
  2.2000
 20
  5.8000
 30
0.0
 11
  2.1000
 21
  5.8000
 31
0.0
 0
LINE
 8
PARTS
 10
  1.7000
 20
  5.8000
 30
0.0
 11
  1.8000
 21
  5.8000
 31
0.0
 0
POLYLINE
 8
PARTS
 66
1
 10
0.0
 20
0.0
 30
0.0
 0
VERTEX
 8
PARTS
 10
  1.9000
 20
  5.7300
 30
0.0
 0
VERTEX
 8
PARTS
 10
  1.9000
 20
  5.8700
 30
0.0
 0
SEQEND
 8
PARTS
 0
POLYLINE
 8
PARTS
 66
1
 10
0.0
 20
0.0
 30
0.0
 0
VERTEX
 8
PARTS
 10
  2.1000
 20
  5.8000
 30
0.0
 0
VERTEX
 8
PARTS
 10
  2.0000
 20
  5.8000
 30
0.0
 0
SEQEND
 8
PARTS
 0
POLYLINE
 8
PARTS
 66
1
 10
0.0
 20
0.0
 30
0.0
 0
VERTEX
 8
PARTS
 10
  1.9000
 20
  5.8000
 30
0.0
 0
VERTEX
 8
PARTS
 10
  1.8000
 20
  5.8000
 30
0.0
 0
SEQEND
 8
PARTS
 0
POLYLINE
 8
PARTS
 66
1
 70
1
 10
0.0
 20
0.0
 30
0.0
 0
VERTEX
 8
PARTS
 10
  1.9000
 20
  5.8000
 30
0.0
 0
VERTEX
 8
PARTS
 10
  1.9000
 20
  5.8000
 30
0.0
 0
VERTEX
 8
PARTS
 10
  2.0000
 20
  5.8700
 30
0.0
 0
VERTEX
 8
PARTS
 10
  2.0000
 20
  5.7300
 30
0.0
 0
VERTEX
 8
PARTS
 10
  1.9000
 20
  5.8000
 30
0.0
 0
SEQEND
 8
PARTS
 0
TEXT
 8
PARTTEXT
 10
  0.7000
 20
  4.6186
 30
0.0
 40
  0.0514
 1
Y1
 0
TEXT
 8
PARTTEXT
 10
  0.7000
 20
  4.5186
 30
0.0
 40
  0.0514
 1
10MHz
 0
LINE
 8
PARTS
 10
  0.6000
 20
  4.4000
 30
0.0
 11
  0.7000
 21
  4.4000
 31
0.0
 0
LINE
 8
PARTS
 10
  1.0000
 20
  4.4000
 30
0.0
 11
  0.9000
 21
  4.4000
 31
0.0
 0
POLYLINE
 8
PARTS
 66
1
 10
0.0
 20
0.0
 30
0.0
 0
VERTEX
 8
PARTS
 10
  0.7000
 20
  4.4500
 30
0.0
 0
VERTEX
 8
PARTS
 10
  0.7000
 20
  4.3500
 30
0.0
 0
SEQEND
 8
PARTS
 0
POLYLINE
 8
PARTS
 66
1
 10
0.0
 20
0.0
 30
0.0
 0
VERTEX
 8
PARTS
 10
  0.7400
 20
  4.5000
 30
0.0
 0
VERTEX
 8
PARTS
 10
  0.7400
 20
  4.3000
 30
0.0
 0
SEQEND
 8
PARTS
 0
POLYLINE
 8
PARTS
 66
1
 10
0.0
 20
0.0
 30
0.0
 0
VERTEX
 8
PARTS
 10
  0.7400
 20
  4.3000
 30
0.0
 0
VERTEX
 8
PARTS
 10
  0.8600
 20
  4.3000
 30
0.0
 0
SEQEND
 8
PARTS
 0
POLYLINE
 8
PARTS
 66
1
 10
0.0
 20
0.0
 30
0.0
 0
VERTEX
 8
PARTS
 10
  0.8600
 20
  4.3000
 30
0.0
 0
VERTEX
 8
PARTS
 10
  0.8600
 20
  4.5000
 30
0.0
 0
SEQEND
 8
PARTS
 0
POLYLINE
 8
PARTS
 66
1
 10
0.0
 20
0.0
 30
0.0
 0
VERTEX
 8
PARTS
 10
  0.8600
 20
  4.5000
 30
0.0
 0
VERTEX
 8
PARTS
 10
  0.7400
 20
  4.5000
 30
0.0
 0
SEQEND
 8
PARTS
 0
POLYLINE
 8
PARTS
 66
1
 10
0.0
 20
0.0
 30
0.0
 0
VERTEX
 8
PARTS
 10
  0.9000
 20
  4.4500
 30
0.0
 0
VERTEX
 8
PARTS
 10
  0.9000
 20
  4.3500
 30
0.0
 0
SEQEND
 8
PARTS
 0
TEXT
 8
PARTTEXT
 10
  0.3000
 20
  4.7186
 30
0.0
 40
  0.0514
 1
C1
 0
TEXT
 8
PARTTEXT
 10
  0.3000
 20
  4.6186
 30
0.0
 40
  0.0514
 1
22pF
 0
LINE
 8
PARTS
 10
  0.6000
 20
  4.9000
 30
0.0
 11
  0.6000
 21
  4.8000
 31
0.0
 0
LINE
 8
PARTS
 10
  0.6000
 20
  4.6000
 30
0.0
 11
  0.6000
 21
  4.7000
 31
0.0
 0
POLYLINE
 8
PARTS
 66
1
 10
0.0
 20
0.0
 30
0.0
 0
VERTEX
 8
PARTS
 10
  0.6000
 20
  4.8000
 30
0.0
 0
VERTEX
 8
PARTS
 10
  0.6000
 20
  4.7800
 30
0.0
 0
SEQEND
 8
PARTS
 0
POLYLINE
 8
PARTS
 66
1
 10
0.0
 20
0.0
 30
0.0
 0
VERTEX
 8
PARTS
 10
  0.5100
 20
  4.7300
 30
0.0
 0
VERTEX
 8
PARTS
 10
  0.6900
 20
  4.7300
 30
0.0
 0
SEQEND
 8
PARTS
 0
POLYLINE
 8
PARTS
 66
1
 10
0.0
 20
0.0
 30
0.0
 0
VERTEX
 8
PARTS
 10
  0.5100
 20
  4.7800
 30
0.0
 0
VERTEX
 8
PARTS
 10
  0.6900
 20
  4.7800
 30
0.0
 0
SEQEND
 8
PARTS
 0
POLYLINE
 8
PARTS
 66
1
 10
0.0
 20
0.0
 30
0.0
 0
VERTEX
 8
PARTS
 10
  0.6000
 20
  4.7000
 30
0.0
 0
VERTEX
 8
PARTS
 10
  0.6000
 20
  4.7300
 30
0.0
 0
SEQEND
 8
PARTS
 0
TEXT
 8
PARTTEXT
 10
  6.6000
 20
  2.7186
 30
0.0
 40
  0.0514
 1
C5
 0
TEXT
 8
PARTTEXT
 10
  6.6000
 20
  2.6186
 30
0.0
 40
  0.0514
 1
100nF
 0
LINE
 8
PARTS
 10
  6.5000
 20
  2.9000
 30
0.0
 11
  6.5000
 21
  2.8000
 31
0.0
 0
LINE
 8
PARTS
 10
  6.5000
 20
  2.6000
 30
0.0
 11
  6.5000
 21
  2.7000
 31
0.0
 0
POLYLINE
 8
PARTS
 66
1
 10
0.0
 20
0.0
 30
0.0
 0
VERTEX
 8
PARTS
 10
  6.5000
 20
  2.8000
 30
0.0
 0
VERTEX
 8
PARTS
 10
  6.5000
 20
  2.7800
 30
0.0
 0
SEQEND
 8
PARTS
 0
POLYLINE
 8
PARTS
 66
1
 10
0.0
 20
0.0
 30
0.0
 0
VERTEX
 8
PARTS
 10
  6.4100
 20
  2.7300
 30
0.0
 0
VERTEX
 8
PARTS
 10
  6.5900
 20
  2.7300
 30
0.0
 0
SEQEND
 8
PARTS
 0
POLYLINE
 8
PARTS
 66
1
 10
0.0
 20
0.0
 30
0.0
 0
VERTEX
 8
PARTS
 10
  6.4100
 20
  2.7800
 30
0.0
 0
VERTEX
 8
PARTS
 10
  6.5900
 20
  2.7800
 30
0.0
 0
SEQEND
 8
PARTS
 0
POLYLINE
 8
PARTS
 66
1
 10
0.0
 20
0.0
 30
0.0
 0
VERTEX
 8
PARTS
 10
  6.5000
 20
  2.7000
 30
0.0
 0
VERTEX
 8
PARTS
 10
  6.5000
 20
  2.7300
 30
0.0
 0
SEQEND
 8
PARTS
 0
TEXT
 8
PARTTEXT
 10
  4.1000
 20
  6.4186
 30
0.0
 40
  0.0514
 1
J1
 0
TEXT
 8
PARTTEXT
 10
  4.1000
 20
  5.5186
 30
0.0
 40
  0.0514
 1
ICD2
 0
LINE
 8
PARTS
 10
  3.8000
 20
  6.2000
 30
0.0
 11
  4.1000
 21
  6.2000
 31
0.0
 0
TEXT
 8
PARTS
 10
  3.9200
 20
  6.2300
 30
0.0
 40
  0.0500
 1
VCC
 0
LINE
 8
PARTS
 10
  3.8000
 20
  6.1000
 30
0.0
 11
  4.1000
 21
  6.1000
 31
0.0
 0
TEXT
 8
PARTS
 10
  3.8800
 20
  6.1300
 30
0.0
 40
  0.0500
 1
MCLR
 0
LINE
 8
PARTS
 10
  3.8000
 20
  6.0000
 30
0.0
 11
  4.1000
 21
  6.0000
 31
0.0
 0
TEXT
 8
PARTS
 10
  3.8800
 20
  6.0300
 30
0.0
 40
  0.0500
 1
PCLK
 0
LINE
 8
PARTS
 10
  3.8000
 20
  5.9000
 30
0.0
 11
  4.1000
 21
  5.9000
 31
0.0
 0
TEXT
 8
PARTS
 10
  3.8800
 20
  5.9300
 30
0.0
 40
  0.0500
 1
PDAT
 0
LINE
 8
PARTS
 10
  3.8000
 20
  5.8000
 30
0.0
 11
  4.1000
 21
  5.8000
 31
0.0
 0
TEXT
 8
PARTS
 10
  3.9200
 20
  5.8300
 30
0.0
 40
  0.0500
 1
GND
 0
POLYLINE
 8
PARTS
 66
1
 70
1
 10
0.0
 20
0.0
 30
0.0
 0
VERTEX
 8
PARTS
 10
  4.1000
 20
  6.3000
 30
0.0
 0
VERTEX
 8
PARTS
 10
  4.3000
 20
  6.3000
 30
0.0
 0
VERTEX
 8
PARTS
 10
  4.3000
 20
  5.7000
 30
0.0
 0
VERTEX
 8
PARTS
 10
  4.1000
 20
  5.7000
 30
0.0
 0
SEQEND
 8
PARTS
 0
TEXT
 8
PARTTEXT
 10
  7.4000
 20
  3.6186
 30
0.0
 40
  0.0514
 1
L1
 0
TEXT
 8
PARTTEXT
 10
  7.4000
 20
  3.5186
 30
0.0
 40
  0.0514
 1
FERRITE BEAD
 0
LINE
 8
PARTS
 10
  7.4000
 20
  3.4000
 30
0.0
 11
  7.5000
 21
  3.4000
 31
0.0
 0
LINE
 8
PARTS
 10
  8.0000
 20
  3.4000
 30
0.0
 11
  7.9000
 21
  3.4000
 31
0.0
 0
POLYLINE
 8
PARTS
 66
1
 10
0.0
 20
0.0
 30
0.0
 0
VERTEX
 8
PARTS
 10
  7.5500
 20
  3.4500
 30
0.0
 42
  0.4142
 0
VERTEX
 8
PARTS
 10
  7.5000
 20
  3.4000
 30
0.0
 0
SEQEND
 8
PARTS
 0
POLYLINE
 8
PARTS
 66
1
 10
0.0
 20
0.0
 30
0.0
 0
VERTEX
 8
PARTS
 10
  7.6000
 20
  3.4000
 30
0.0
 42
  0.4142
 0
VERTEX
 8
PARTS
 10
  7.5500
 20
  3.4500
 30
0.0
 0
SEQEND
 8
PARTS
 0
POLYLINE
 8
PARTS
 66
1
 10
0.0
 20
0.0
 30
0.0
 0
VERTEX
 8
PARTS
 10
  7.6500
 20
  3.4500
 30
0.0
 42
  0.4142
 0
VERTEX
 8
PARTS
 10
  7.6000
 20
  3.4000
 30
0.0
 0
SEQEND
 8
PARTS
 0
POLYLINE
 8
PARTS
 66
1
 10
0.0
 20
0.0
 30
0.0
 0
VERTEX
 8
PARTS
 10
  7.7000
 20
  3.4000
 30
0.0
 42
  0.4142
 0
VERTEX
 8
PARTS
 10
  7.6500
 20
  3.4500
 30
0.0
 0
SEQEND
 8
PARTS
 0
POLYLINE
 8
PARTS
 66
1
 10
0.0
 20
0.0
 30
0.0
 0
VERTEX
 8
PARTS
 10
  7.7500
 20
  3.4500
 30
0.0
 42
  0.4142
 0
VERTEX
 8
PARTS
 10
  7.7000
 20
  3.4000
 30
0.0
 0
SEQEND
 8
PARTS
 0
POLYLINE
 8
PARTS
 66
1
 10
0.0
 20
0.0
 30
0.0
 0
VERTEX
 8
PARTS
 10
  7.8000
 20
  3.4000
 30
0.0
 42
  0.4142
 0
VERTEX
 8
PARTS
 10
  7.7500
 20
  3.4500
 30
0.0
 0
SEQEND
 8
PARTS
 0
POLYLINE
 8
PARTS
 66
1
 10
0.0
 20
0.0
 30
0.0
 0
VERTEX
 8
PARTS
 10
  7.8500
 20
  3.4500
 30
0.0
 42
  0.4142
 0
VERTEX
 8
PARTS
 10
  7.8000
 20
  3.4000
 30
0.0
 0
SEQEND
 8
PARTS
 0
POLYLINE
 8
PARTS
 66
1
 10
0.0
 20
0.0
 30
0.0
 0
VERTEX
 8
PARTS
 10
  7.9000
 20
  3.4000
 30
0.0
 42
  0.4142
 0
VERTEX
 8
PARTS
 10
  7.8500
 20
  3.4500
 30
0.0
 0
SEQEND
 8
PARTS
 0
TEXT
 8
PARTTEXT
 10
  8.7000
 20
  3.6186
 30
0.0
 40
  0.0514
 1
J3
 0
TEXT
 8
PARTTEXT
 10
  8.7000
 20
  3.5186
 30
0.0
 40
  0.0514
 1
USB
 0
LINE
 8
PARTS
 10
  8.4000
 20
  3.4000
 30
0.0
 11
  8.7000
 21
  3.4000
 31
0.0
 0
TEXT
 8
PARTS
 10
  8.6000
 20
  3.4300
 30
0.0
 40
  0.0500
 1
1
 0
LINE
 8
PARTS
 10
  8.4000
 20
  3.3000
 30
0.0
 11
  8.7000
 21
  3.3000
 31
0.0
 0
TEXT
 8
PARTS
 10
  8.6000
 20
  3.3300
 30
0.0
 40
  0.0500
 1
2
 0
LINE
 8
PARTS
 10
  8.4000
 20
  3.2000
 30
0.0
 11
  8.7000
 21
  3.2000
 31
0.0
 0
TEXT
 8
PARTS
 10
  8.6000
 20
  3.2300
 30
0.0
 40
  0.0500
 1
3
 0
LINE
 8
PARTS
 10
  8.4000
 20
  3.1000
 30
0.0
 11
  8.7000
 21
  3.1000
 31
0.0
 0
TEXT
 8
PARTS
 10
  8.6000
 20
  3.1300
 30
0.0
 40
  0.0500
 1
4
 0
POLYLINE
 8
PARTS
 66
1
 70
1
 10
0.0
 20
0.0
 30
0.0
 0
VERTEX
 8
PARTS
 10
  8.7000
 20
  3.5000
 30
0.0
 0
VERTEX
 8
PARTS
 10
  8.9000
 20
  3.5000
 30
0.0
 0
VERTEX
 8
PARTS
 10
  8.9000
 20
  3.0000
 30
0.0
 0
VERTEX
 8
PARTS
 10
  8.7000
 20
  3.0000
 30
0.0
 0
SEQEND
 8
PARTS
 0
TEXT
 8
PARTTEXT
 10
  7.4000
 20
  2.9186
 30
0.0
 40
  0.0514
 1
C7
 0
TEXT
 8
PARTTEXT
 10
  7.4000
 20
  2.8186
 30
0.0
 40
  0.0514
 1
100nF
 0
LINE
 8
PARTS
 10
  7.3000
 20
  3.1000
 30
0.0
 11
  7.3000
 21
  3.0000
 31
0.0
 0
LINE
 8
PARTS
 10
  7.3000
 20
  2.8000
 30
0.0
 11
  7.3000
 21
  2.9000
 31
0.0
 0
POLYLINE
 8
PARTS
 66
1
 10
0.0
 20
0.0
 30
0.0
 0
VERTEX
 8
PARTS
 10
  7.3000
 20
  3.0000
 30
0.0
 0
VERTEX
 8
PARTS
 10
  7.3000
 20
  2.9800
 30
0.0
 0
SEQEND
 8
PARTS
 0
POLYLINE
 8
PARTS
 66
1
 10
0.0
 20
0.0
 30
0.0
 0
VERTEX
 8
PARTS
 10
  7.2100
 20
  2.9300
 30
0.0
 0
VERTEX
 8
PARTS
 10
  7.3900
 20
  2.9300
 30
0.0
 0
SEQEND
 8
PARTS
 0
POLYLINE
 8
PARTS
 66
1
 10
0.0
 20
0.0
 30
0.0
 0
VERTEX
 8
PARTS
 10
  7.2100
 20
  2.9800
 30
0.0
 0
VERTEX
 8
PARTS
 10
  7.3900
 20
  2.9800
 30
0.0
 0
SEQEND
 8
PARTS
 0
POLYLINE
 8
PARTS
 66
1
 10
0.0
 20
0.0
 30
0.0
 0
VERTEX
 8
PARTS
 10
  7.3000
 20
  2.9000
 30
0.0
 0
VERTEX
 8
PARTS
 10
  7.3000
 20
  2.9300
 30
0.0
 0
SEQEND
 8
PARTS
 0
TEXT
 8
PARTTEXT
 10
  6.8000
 20
  5.4186
 30
0.0
 40
  0.0514
 1
U2
 0
TEXT
 8
PARTTEXT
 10
  6.8000
 20
  5.3186
 30
0.0
 40
  0.0514
 1
MCP2551
 0
LINE
 8
PARTS
 10
  6.5000
 20
  5.0000
 30
0.0
 11
  6.8000
 21
  5.0000
 31
0.0
 0
TEXT
 8
PARTS
 10
  6.8900
 20
  4.9750
 30
0.0
 40
  0.0500
 1
VDD
 0
TEXT
 8
PARTS
 10
  6.7000
 20
  5.0300
 30
0.0
 40
  0.0500
 1
3
 0
LINE
 8
PARTS
 10
  6.5000
 20
  4.9000
 30
0.0
 11
  6.8000
 21
  4.9000
 31
0.0
 0
TEXT
 8
PARTS
 10
  6.8900
 20
  4.8750
 30
0.0
 40
  0.0500
 1
RXD
 0
TEXT
 8
PARTS
 10
  6.7000
 20
  4.9300
 30
0.0
 40
  0.0500
 1
4
 0
LINE
 8
PARTS
 10
  6.5000
 20
  5.2000
 30
0.0
 11
  6.8000
 21
  5.2000
 31
0.0
 0
TEXT
 8
PARTS
 10
  6.8900
 20
  5.1750
 30
0.0
 40
  0.0500
 1
TXD
 0
TEXT
 8
PARTS
 10
  6.7000
 20
  5.2300
 30
0.0
 40
  0.0500
 1
1
 0
LINE
 8
PARTS
 10
  6.5000
 20
  5.1000
 30
0.0
 11
  6.8000
 21
  5.1000
 31
0.0
 0
TEXT
 8
PARTS
 10
  6.8900
 20
  5.0750
 30
0.0
 40
  0.0500
 1
VSS
 0
TEXT
 8
PARTS
 10
  6.7000
 20
  5.1300
 30
0.0
 40
  0.0500
 1
2
 0
LINE
 8
PARTS
 10
  7.7000
 20
  5.2000
 30
0.0
 11
  7.4000
 21
  5.2000
 31
0.0
 0
LINE
 8
PARTS
 10
  7.7250
 20
  5.2250
 30
0.0
 11
  7.6750
 21
  5.1750
 31
0.0
 0
LINE
 8
PARTS
 10
  7.6750
 20
  5.2250
 30
0.0
 11
  7.7250
 21
  5.1750
 31
0.0
 0
TEXT
 8
PARTS
 10
  7.2300
 20
  5.1750
 30
0.0
 40
  0.0500
 1
Rs
 0
TEXT
 8
PARTS
 10
  7.4600
 20
  5.2300
 30
0.0
 40
  0.0500
 1
8
 0
LINE
 8
PARTS
 10
  7.7000
 20
  5.1000
 30
0.0
 11
  7.4000
 21
  5.1000
 31
0.0
 0
TEXT
 8
PARTS
 10
  7.2700
 20
  5.0750
 30
0.0
 40
  0.0500
 1
H
 0
TEXT
 8
PARTS
 10
  7.4600
 20
  5.1300
 30
0.0
 40
  0.0500
 1
7
 0
LINE
 8
PARTS
 10
  7.7000
 20
  4.9000
 30
0.0
 11
  7.4000
 21
  4.9000
 31
0.0
 0
LINE
 8
PARTS
 10
  7.7250
 20
  4.9250
 30
0.0
 11
  7.6750
 21
  4.8750
 31
0.0
 0
LINE
 8
PARTS
 10
  7.6750
 20
  4.9250
 30
0.0
 11
  7.7250
 21
  4.8750
 31
0.0
 0
TEXT
 8
PARTS
 10
  7.1500
 20
  4.8750
 30
0.0
 40
  0.0500
 1
vRef
 0
TEXT
 8
PARTS
 10
  7.4600
 20
  4.9300
 30
0.0
 40
  0.0500
 1
5
 0
LINE
 8
PARTS
 10
  7.7000
 20
  5.0000
 30
0.0
 11
  7.4000
 21
  5.0000
 31
0.0
 0
TEXT
 8
PARTS
 10
  7.2700
 20
  4.9750
 30
0.0
 40
  0.0500
 1
L
 0
TEXT
 8
PARTS
 10
  7.4600
 20
  5.0300
 30
0.0
 40
  0.0500
 1
6
 0
POLYLINE
 8
PARTS
 66
1
 70
1
 10
0.0
 20
0.0
 30
0.0
 0
VERTEX
 8
PARTS
 10
  6.8000
 20
  5.3000
 30
0.0
 0
VERTEX
 8
PARTS
 10
  7.4000
 20
  5.3000
 30
0.0
 0
VERTEX
 8
PARTS
 10
  7.4000
 20
  4.8000
 30
0.0
 0
VERTEX
 8
PARTS
 10
  6.8000
 20
  4.8000
 30
0.0
 0
SEQEND
 8
PARTS
 0
TEXT
 8
PARTTEXT
 10
  4.4000
 20
  3.7186
 30
0.0
 40
  0.0514
 1
U3
 0
TEXT
 8
PARTTEXT
 10
  4.4000
 20
  3.6186
 30
0.0
 40
  0.0514
 1
FT232RL
 0
LINE
 8
PARTS
 10
  4.1000
 20
  3.1000
 30
0.0
 11
  4.4000
 21
  3.1000
 31
0.0
 0
LINE
 8
PARTS
 10
  4.0750
 20
  3.1250
 30
0.0
 11
  4.1250
 21
  3.0750
 31
0.0
 0
LINE
 8
PARTS
 10
  4.1250
 20
  3.1250
 30
0.0
 11
  4.0750
 21
  3.0750
 31
0.0
 0
TEXT
 8
PARTS
 10
  4.4900
 20
  3.0750
 30
0.0
 40
  0.0500
 1
DTR
 0
TEXT
 8
PARTS
 10
  4.3000
 20
  3.1300
 30
0.0
 40
  0.0500
 1
2
 0
LINE
 8
PARTS
 10
  4.1000
 20
  3.3000
 30
0.0
 11
  4.4000
 21
  3.3000
 31
0.0
 0
LINE
 8
PARTS
 10
  4.0750
 20
  3.3250
 30
0.0
 11
  4.1250
 21
  3.2750
 31
0.0
 0
LINE
 8
PARTS
 10
  4.1250
 20
  3.3250
 30
0.0
 11
  4.0750
 21
  3.2750
 31
0.0
 0
TEXT
 8
PARTS
 10
  4.4900
 20
  3.2750
 30
0.0
 40
  0.0500
 1
RTS
 0
TEXT
 8
PARTS
 10
  4.3000
 20
  3.3300
 30
0.0
 40
  0.0500
 1
3
 0
LINE
 8
PARTS
 10
  6.3000
 20
  3.5000
 30
0.0
 11
  6.0000
 21
  3.5000
 31
0.0
 0
TEXT
 8
PARTS
 10
  5.7100
 20
  3.4750
 30
0.0
 40
  0.0500
 1
VCCIO
 0
TEXT
 8
PARTS
 10
  6.0600
 20
  3.5300
 30
0.0
 40
  0.0500
 1
4
 0
LINE
 8
PARTS
 10
  5.3000
 20
  1.7000
 30
0.0
 11
  5.3000
 21
  2.0000
 31
0.0
 0
TEXT
 8
PARTS
 10
  5.3250
 20
  2.0900
 30
0.0
 40
  0.0500
 50
 90.0000
 1
GND
 0
TEXT
 8
PARTS
 10
  5.2700
 20
  1.8800
 30
0.0
 40
  0.0500
 50
 90.0000
 1
7
 0
LINE
 8
PARTS
 10
  4.1000
 20
  2.8000
 30
0.0
 11
  4.4000
 21
  2.8000
 31
0.0
 0
LINE
 8
PARTS
 10
  4.0750
 20
  2.8250
 30
0.0
 11
  4.1250
 21
  2.7750
 31
0.0
 0
LINE
 8
PARTS
 10
  4.1250
 20
  2.8250
 30
0.0
 11
  4.0750
 21
  2.7750
 31
0.0
 0
TEXT
 8
PARTS
 10
  4.4900
 20
  2.7750
 30
0.0
 40
  0.0500
 1
RI
 0
TEXT
 8
PARTS
 10
  4.3000
 20
  2.8300
 30
0.0
 40
  0.0500
 1
6
 0
LINE
 8
PARTS
 10
  4.1000
 20
  3.4000
 30
0.0
 11
  4.4000
 21
  3.4000
 31
0.0
 0
TEXT
 8
PARTS
 10
  4.4900
 20
  3.3750
 30
0.0
 40
  0.0500
 1
RXD
 0
TEXT
 8
PARTS
 10
  4.3000
 20
  3.4300
 30
0.0
 40
  0.0500
 1
5
 0
LINE
 8
PARTS
 10
  6.3000
 20
  2.3000
 30
0.0
 11
  6.0000
 21
  2.3000
 31
0.0
 0
LINE
 8
PARTS
 10
  6.3250
 20
  2.3250
 30
0.0
 11
  6.2750
 21
  2.2750
 31
0.0
 0
LINE
 8
PARTS
 10
  6.2750
 20
  2.3250
 30
0.0
 11
  6.3250
 21
  2.2750
 31
0.0
 0
TEXT
 8
PARTS
 10
  5.8300
 20
  2.2750
 30
0.0
 40
  0.0500
 1
NC
 0
TEXT
 8
PARTS
 10
  6.0600
 20
  2.3300
 30
0.0
 40
  0.0500
 1
8
 0
LINE
 8
PARTS
 10
  4.1000
 20
  3.5000
 30
0.0
 11
  4.4000
 21
  3.5000
 31
0.0
 0
TEXT
 8
PARTS
 10
  4.4900
 20
  3.4750
 30
0.0
 40
  0.0500
 1
TXD
 0
TEXT
 8
PARTS
 10
  4.3000
 20
  3.5300
 30
0.0
 40
  0.0500
 1
1
 0
LINE
 8
PARTS
 10
  4.1000
 20
  3.0000
 30
0.0
 11
  4.4000
 21
  3.0000
 31
0.0
 0
LINE
 8
PARTS
 10
  4.0750
 20
  3.0250
 30
0.0
 11
  4.1250
 21
  2.9750
 31
0.0
 0
LINE
 8
PARTS
 10
  4.1250
 20
  3.0250
 30
0.0
 11
  4.0750
 21
  2.9750
 31
0.0
 0
TEXT
 8
PARTS
 10
  4.4900
 20
  2.9750
 30
0.0
 40
  0.0500
 1
DSR
 0
TEXT
 8
PARTS
 10
  4.3000
 20
  3.0300
 30
0.0
 40
  0.0500
 1
9
 0
LINE
 8
PARTS
 10
  4.1000
 20
  2.9000
 30
0.0
 11
  4.4000
 21
  2.9000
 31
0.0
 0
LINE
 8
PARTS
 10
  4.0750
 20
  2.9250
 30
0.0
 11
  4.1250
 21
  2.8750
 31
0.0
 0
LINE
 8
PARTS
 10
  4.1250
 20
  2.9250
 30
0.0
 11
  4.0750
 21
  2.8750
 31
0.0
 0
TEXT
 8
PARTS
 10
  4.4900
 20
  2.8750
 30
0.0
 40
  0.0500
 1
DCD
 0
TEXT
 8
PARTS
 10
  4.2600
 20
  2.9300
 30
0.0
 40
  0.0500
 1
10
 0
LINE
 8
PARTS
 10
  4.1000
 20
  3.2000
 30
0.0
 11
  4.4000
 21
  3.2000
 31
0.0
 0
LINE
 8
PARTS
 10
  4.0750
 20
  3.2250
 30
0.0
 11
  4.1250
 21
  3.1750
 31
0.0
 0
LINE
 8
PARTS
 10
  4.1250
 20
  3.2250
 30
0.0
 11
  4.0750
 21
  3.1750
 31
0.0
 0
TEXT
 8
PARTS
 10
  4.4900
 20
  3.1750
 30
0.0
 40
  0.0500
 1
CTS
 0
TEXT
 8
PARTS
 10
  4.2600
 20
  3.2300
 30
0.0
 40
  0.0500
 1
11
 0
LINE
 8
PARTS
 10
  4.1000
 20
  2.2000
 30
0.0
 11
  4.4000
 21
  2.2000
 31
0.0
 0
LINE
 8
PARTS
 10
  4.0750
 20
  2.2250
 30
0.0
 11
  4.1250
 21
  2.1750
 31
0.0
 0
LINE
 8
PARTS
 10
  4.1250
 20
  2.2250
 30
0.0
 11
  4.0750
 21
  2.1750
 31
0.0
 0
TEXT
 8
PARTS
 10
  4.4900
 20
  2.1750
 30
0.0
 40
  0.0500
 1
CBUS4
 0
TEXT
 8
PARTS
 10
  4.2600
 20
  2.2300
 30
0.0
 40
  0.0500
 1
12
 0
LINE
 8
PARTS
 10
  4.1000
 20
  2.4000
 30
0.0
 11
  4.4000
 21
  2.4000
 31
0.0
 0
LINE
 8
PARTS
 10
  4.0750
 20
  2.4250
 30
0.0
 11
  4.1250
 21
  2.3750
 31
0.0
 0
LINE
 8
PARTS
 10
  4.1250
 20
  2.4250
 30
0.0
 11
  4.0750
 21
  2.3750
 31
0.0
 0
TEXT
 8
PARTS
 10
  4.4900
 20
  2.3750
 30
0.0
 40
  0.0500
 1
CBUS2
 0
TEXT
 8
PARTS
 10
  4.2600
 20
  2.4300
 30
0.0
 40
  0.0500
 1
13
 0
LINE
 8
PARTS
 10
  4.1000
 20
  2.3000
 30
0.0
 11
  4.4000
 21
  2.3000
 31
0.0
 0
LINE
 8
PARTS
 10
  4.0750
 20
  2.3250
 30
0.0
 11
  4.1250
 21
  2.2750
 31
0.0
 0
LINE
 8
PARTS
 10
  4.1250
 20
  2.3250
 30
0.0
 11
  4.0750
 21
  2.2750
 31
0.0
 0
TEXT
 8
PARTS
 10
  4.4900
 20
  2.2750
 30
0.0
 40
  0.0500
 1
CBUS3
 0
TEXT
 8
PARTS
 10
  4.2600
 20
  2.3300
 30
0.0
 40
  0.0500
 1
14
 0
LINE
 8
PARTS
 10
  6.3000
 20
  3.2000
 30
0.0
 11
  6.0000
 21
  3.2000
 31
0.0
 0
TEXT
 8
PARTS
 10
  5.7100
 20
  3.1750
 30
0.0
 40
  0.0500
 1
USBDP
 0
TEXT
 8
PARTS
 10
  6.0600
 20
  3.2300
 30
0.0
 40
  0.0500
 1
15
 0
LINE
 8
PARTS
 10
  6.3000
 20
  3.3000
 30
0.0
 11
  6.0000
 21
  3.3000
 31
0.0
 0
TEXT
 8
PARTS
 10
  5.7100
 20
  3.2750
 30
0.0
 40
  0.0500
 1
USBDM
 0
TEXT
 8
PARTS
 10
  6.0600
 20
  3.3300
 30
0.0
 40
  0.0500
 1
16
 0
LINE
 8
PARTS
 10
  6.3000
 20
  2.1000
 30
0.0
 11
  6.0000
 21
  2.1000
 31
0.0
 0
TEXT
 8
PARTS
 10
  5.6700
 20
  2.0750
 30
0.0
 40
  0.0500
 1
3V3OUT
 0
TEXT
 8
PARTS
 10
  6.0600
 20
  2.1300
 30
0.0
 40
  0.0500
 1
17
 0
LINE
 8
PARTS
 10
  5.2000
 20
  1.7000
 30
0.0
 11
  5.2000
 21
  2.0000
 31
0.0
 0
TEXT
 8
PARTS
 10
  5.2250
 20
  2.0900
 30
0.0
 40
  0.0500
 50
 90.0000
 1
GND
 0
TEXT
 8
PARTS
 10
  5.1700
 20
  1.8800
 30
0.0
 40
  0.0500
 50
 90.0000
 1
18
 0
LINE
 8
PARTS
 10
  6.3000
 20
  2.9000
 30
0.0
 11
  6.0000
 21
  2.9000
 31
0.0
 0
LINE
 8
PARTS
 10
  6.3250
 20
  2.9250
 30
0.0
 11
  6.2750
 21
  2.8750
 31
0.0
 0
LINE
 8
PARTS
 10
  6.2750
 20
  2.9250
 30
0.0
 11
  6.3250
 21
  2.8750
 31
0.0
 0
TEXT
 8
PARTS
 10
  5.7100
 20
  2.8750
 30
0.0
 40
  0.0500
 1
RESET
 0
TEXT
 8
PARTS
 10
  6.0600
 20
  2.9300
 30
0.0
 40
  0.0500
 1
19
 0
LINE
 8
PARTS
 10
  6.3000
 20
  3.4000
 30
0.0
 11
  6.0000
 21
  3.4000
 31
0.0
 0
TEXT
 8
PARTS
 10
  5.7900
 20
  3.3750
 30
0.0
 40
  0.0500
 1
VCC
 0
TEXT
 8
PARTS
 10
  6.0600
 20
  3.4300
 30
0.0
 40
  0.0500
 1
20
 0
LINE
 8
PARTS
 10
  5.1000
 20
  1.7000
 30
0.0
 11
  5.1000
 21
  2.0000
 31
0.0
 0
TEXT
 8
PARTS
 10
  5.1250
 20
  2.0900
 30
0.0
 40
  0.0500
 50
 90.0000
 1
GND
 0
TEXT
 8
PARTS
 10
  5.0700
 20
  1.8800
 30
0.0
 40
  0.0500
 50
 90.0000
 1
21
 0
LINE
 8
PARTS
 10
  4.1000
 20
  2.5000
 30
0.0
 11
  4.4000
 21
  2.5000
 31
0.0
 0
LINE
 8
PARTS
 10
  4.0750
 20
  2.5250
 30
0.0
 11
  4.1250
 21
  2.4750
 31
0.0
 0
LINE
 8
PARTS
 10
  4.1250
 20
  2.5250
 30
0.0
 11
  4.0750
 21
  2.4750
 31
0.0
 0
TEXT
 8
PARTS
 10
  4.4900
 20
  2.4750
 30
0.0
 40
  0.0500
 1
CBUS1
 0
TEXT
 8
PARTS
 10
  4.2600
 20
  2.5300
 30
0.0
 40
  0.0500
 1
22
 0
LINE
 8
PARTS
 10
  4.1000
 20
  2.6000
 30
0.0
 11
  4.4000
 21
  2.6000
 31
0.0
 0
LINE
 8
PARTS
 10
  4.0750
 20
  2.6250
 30
0.0
 11
  4.1250
 21
  2.5750
 31
0.0
 0
LINE
 8
PARTS
 10
  4.1250
 20
  2.6250
 30
0.0
 11
  4.0750
 21
  2.5750
 31
0.0
 0
TEXT
 8
PARTS
 10
  4.4900
 20
  2.5750
 30
0.0
 40
  0.0500
 1
CBUS0
 0
TEXT
 8
PARTS
 10
  4.2600
 20
  2.6300
 30
0.0
 40
  0.0500
 1
23
 0
LINE
 8
PARTS
 10
  6.3000
 20
  2.4000
 30
0.0
 11
  6.0000
 21
  2.4000
 31
0.0
 0
LINE
 8
PARTS
 10
  6.3250
 20
  2.4250
 30
0.0
 11
  6.2750
 21
  2.3750
 31
0.0
 0
LINE
 8
PARTS
 10
  6.2750
 20
  2.4250
 30
0.0
 11
  6.3250
 21
  2.3750
 31
0.0
 0
TEXT
 8
PARTS
 10
  5.8300
 20
  2.3750
 30
0.0
 40
  0.0500
 1
NC
 0
TEXT
 8
PARTS
 10
  6.0600
 20
  2.4300
 30
0.0
 40
  0.0500
 1
24
 0
LINE
 8
PARTS
 10
  5.4000
 20
  1.7000
 30
0.0
 11
  5.4000
 21
  2.0000
 31
0.0
 0
TEXT
 8
PARTS
 10
  5.4250
 20
  2.0900
 30
0.0
 40
  0.0500
 50
 90.0000
 1
AGND
 0
TEXT
 8
PARTS
 10
  5.3700
 20
  1.8800
 30
0.0
 40
  0.0500
 50
 90.0000
 1
25
 0
LINE
 8
PARTS
 10
  5.0000
 20
  1.7000
 30
0.0
 11
  5.0000
 21
  2.0000
 31
0.0
 0
TEXT
 8
PARTS
 10
  5.0250
 20
  2.0900
 30
0.0
 40
  0.0500
 50
 90.0000
 1
TEST
 0
TEXT
 8
PARTS
 10
  4.9700
 20
  1.8800
 30
0.0
 40
  0.0500
 50
 90.0000
 1
26
 0
LINE
 8
PARTS
 10
  6.3000
 20
  2.7000
 30
0.0
 11
  6.0000
 21
  2.7000
 31
0.0
 0
LINE
 8
PARTS
 10
  6.3250
 20
  2.7250
 30
0.0
 11
  6.2750
 21
  2.6750
 31
0.0
 0
LINE
 8
PARTS
 10
  6.2750
 20
  2.7250
 30
0.0
 11
  6.3250
 21
  2.6750
 31
0.0
 0
TEXT
 8
PARTS
 10
  5.7500
 20
  2.6750
 30
0.0
 40
  0.0500
 1
OSCI
 0
TEXT
 8
PARTS
 10
  6.0600
 20
  2.7300
 30
0.0
 40
  0.0500
 1
27
 0
LINE
 8
PARTS
 10
  6.3000
 20
  2.6000
 30
0.0
 11
  6.0000
 21
  2.6000
 31
0.0
 0
LINE
 8
PARTS
 10
  6.3250
 20
  2.6250
 30
0.0
 11
  6.2750
 21
  2.5750
 31
0.0
 0
LINE
 8
PARTS
 10
  6.2750
 20
  2.6250
 30
0.0
 11
  6.3250
 21
  2.5750
 31
0.0
 0
TEXT
 8
PARTS
 10
  5.7500
 20
  2.5750
 30
0.0
 40
  0.0500
 1
OSCO
 0
TEXT
 8
PARTS
 10
  6.0600
 20
  2.6300
 30
0.0
 40
  0.0500
 1
28
 0
POLYLINE
 8
PARTS
 66
1
 70
1
 10
0.0
 20
0.0
 30
0.0
 0
VERTEX
 8
PARTS
 10
  4.4000
 20
  3.6000
 30
0.0
 0
VERTEX
 8
PARTS
 10
  6.0000
 20
  3.6000
 30
0.0
 0
VERTEX
 8
PARTS
 10
  6.0000
 20
  2.0000
 30
0.0
 0
VERTEX
 8
PARTS
 10
  4.4000
 20
  2.0000
 30
0.0
 0
SEQEND
 8
PARTS
 0
TEXT
 8
PARTTEXT
 10
  3.5000
 20
  4.2186
 30
0.0
 40
  0.0514
 1
C4
 0
TEXT
 8
PARTTEXT
 10
  3.5000
 20
  4.1186
 30
0.0
 40
  0.0514
 1
100nF
 0
LINE
 8
PARTS
 10
  3.4000
 20
  4.4000
 30
0.0
 11
  3.4000
 21
  4.3000
 31
0.0
 0
LINE
 8
PARTS
 10
  3.4000
 20
  4.1000
 30
0.0
 11
  3.4000
 21
  4.2000
 31
0.0
 0
POLYLINE
 8
PARTS
 66
1
 10
0.0
 20
0.0
 30
0.0
 0
VERTEX
 8
PARTS
 10
  3.4000
 20
  4.3000
 30
0.0
 0
VERTEX
 8
PARTS
 10
  3.4000
 20
  4.2800
 30
0.0
 0
SEQEND
 8
PARTS
 0
POLYLINE
 8
PARTS
 66
1
 10
0.0
 20
0.0
 30
0.0
 0
VERTEX
 8
PARTS
 10
  3.3100
 20
  4.2300
 30
0.0
 0
VERTEX
 8
PARTS
 10
  3.4900
 20
  4.2300
 30
0.0
 0
SEQEND
 8
PARTS
 0
POLYLINE
 8
PARTS
 66
1
 10
0.0
 20
0.0
 30
0.0
 0
VERTEX
 8
PARTS
 10
  3.3100
 20
  4.2800
 30
0.0
 0
VERTEX
 8
PARTS
 10
  3.4900
 20
  4.2800
 30
0.0
 0
SEQEND
 8
PARTS
 0
POLYLINE
 8
PARTS
 66
1
 10
0.0
 20
0.0
 30
0.0
 0
VERTEX
 8
PARTS
 10
  3.4000
 20
  4.2000
 30
0.0
 0
VERTEX
 8
PARTS
 10
  3.4000
 20
  4.2300
 30
0.0
 0
SEQEND
 8
PARTS
 0
TEXT
 8
PARTTEXT
 10
  2.4000
 20
  6.0186
 30
0.0
 40
  0.0514
 1
R1
 0
TEXT
 8
PARTTEXT
 10
  2.4000
 20
  5.9186
 30
0.0
 40
  0.0514
 1
10k
 0
LINE
 8
PARTS
 10
  2.3000
 20
  5.8000
 30
0.0
 11
  2.4000
 21
  5.8000
 31
0.0
 0
LINE
 8
PARTS
 10
  2.8000
 20
  5.8000
 30
0.0
 11
  2.7000
 21
  5.8000
 31
0.0
 0
POLYLINE
 8
PARTS
 66
1
 10
0.0
 20
0.0
 30
0.0
 0
VERTEX
 8
PARTS
 10
  2.4000
 20
  5.8000
 30
0.0
 0
VERTEX
 8
PARTS
 10
  2.4300
 20
  5.8300
 30
0.0
 0
SEQEND
 8
PARTS
 0
POLYLINE
 8
PARTS
 66
1
 10
0.0
 20
0.0
 30
0.0
 0
VERTEX
 8
PARTS
 10
  2.4300
 20
  5.8300
 30
0.0
 0
VERTEX
 8
PARTS
 10
  2.4900
 20
  5.7700
 30
0.0
 0
SEQEND
 8
PARTS
 0
POLYLINE
 8
PARTS
 66
1
 10
0.0
 20
0.0
 30
0.0
 0
VERTEX
 8
PARTS
 10
  2.4900
 20
  5.7700
 30
0.0
 0
VERTEX
 8
PARTS
 10
  2.5500
 20
  5.8300
 30
0.0
 0
SEQEND
 8
PARTS
 0
POLYLINE
 8
PARTS
 66
1
 10
0.0
 20
0.0
 30
0.0
 0
VERTEX
 8
PARTS
 10
  2.5500
 20
  5.8300
 30
0.0
 0
VERTEX
 8
PARTS
 10
  2.6100
 20
  5.7700
 30
0.0
 0
SEQEND
 8
PARTS
 0
POLYLINE
 8
PARTS
 66
1
 10
0.0
 20
0.0
 30
0.0
 0
VERTEX
 8
PARTS
 10
  2.6100
 20
  5.7700
 30
0.0
 0
VERTEX
 8
PARTS
 10
  2.6700
 20
  5.8300
 30
0.0
 0
SEQEND
 8
PARTS
 0
POLYLINE
 8
PARTS
 66
1
 10
0.0
 20
0.0
 30
0.0
 0
VERTEX
 8
PARTS
 10
  2.6700
 20
  5.8300
 30
0.0
 0
VERTEX
 8
PARTS
 10
  2.7000
 20
  5.8000
 30
0.0
 0
SEQEND
 8
PARTS
 0
TEXT
 8
PARTTEXT
 10
  8.6000
 20
  5.3186
 30
0.0
 40
  0.0514
 1
J2
 0
TEXT
 8
PARTTEXT
 10
  8.6000
 20
  5.2186
 30
0.0
 40
  0.0514
 1
VAN
 0
LINE
 8
PARTS
 10
  8.3000
 20
  5.1000
 30
0.0
 11
  8.6000
 21
  5.1000
 31
0.0
 0
TEXT
 8
PARTS
 10
  8.6900
 20
  5.0750
 30
0.0
 40
  0.0500
 1
%%oDATA%%o
 0
LINE
 8
PARTS
 10
  8.3000
 20
  5.0000
 30
0.0
 11
  8.6000
 21
  5.0000
 31
0.0
 0
TEXT
 8
PARTS
 10
  8.6900
 20
  4.9750
 30
0.0
 40
  0.0500
 1
DATA
 0
LINE
 8
PARTS
 10
  8.3000
 20
  4.9000
 30
0.0
 11
  8.6000
 21
  4.9000
 31
0.0
 0
TEXT
 8
PARTS
 10
  8.6900
 20
  4.8750
 30
0.0
 40
  0.0500
 1
0V
 0
POLYLINE
 8
PARTS
 66
1
 70
1
 10
0.0
 20
0.0
 30
0.0
 0
VERTEX
 8
PARTS
 10
  8.6000
 20
  5.2000
 30
0.0
 0
VERTEX
 8
PARTS
 10
  8.8000
 20
  5.2000
 30
0.0
 0
VERTEX
 8
PARTS
 10
  8.8000
 20
  4.8000
 30
0.0
 0
VERTEX
 8
PARTS
 10
  8.6000
 20
  4.8000
 30
0.0
 0
SEQEND
 8
PARTS
 0
POLYLINE
 8
WIRE
 66
1
 10
0.0
 20
0.0
 30
0.0
 0
VERTEX
 8
WIRE
 10
  2.3000
 20
  5.8000
 30
0.0
 0
VERTEX
 8
WIRE
 10
  2.2000
 20
  5.8000
 30
0.0
 0
SEQEND
 8
WIRE
 0
POLYLINE
 8
WIRE
 66
1
 10
0.0
 20
0.0
 30
0.0
 0
VERTEX
 8
WIRE
 10
  1.7000
 20
  5.8000
 30
0.0
 0
VERTEX
 8
WIRE
 10
  1.6000
 20
  5.8000
 30
0.0
 0
SEQEND
 8
WIRE
 0
POLYLINE
 8
WIRE
 66
1
 10
0.0
 20
0.0
 30
0.0
 0
VERTEX
 8
WIRE
 10
  1.6000
 20
  5.2000
 30
0.0
 0
VERTEX
 8
WIRE
 10
  1.6000
 20
  5.8000
 30
0.0
 0
SEQEND
 8
WIRE
 0
POLYLINE
 8
WIRE
 66
1
 70
1
 10
0.0
 20
0.0
 30
0.0
 40
  0.0200
 41
  0.0200
 0
VERTEX
 8
WIRE
 10
  1.5900
 20
  5.8000
 30
0.0
 42
1.0
 0
VERTEX
 8
WIRE
 10
  1.6100
 20
  5.8000
 30
0.0
 42
1.0
 0
SEQEND
 8
WIRE
 0
POLYLINE
 8
WIRE
 66
1
 10
0.0
 20
0.0
 30
0.0
 0
VERTEX
 8
WIRE
 10
  3.8000
 20
  6.1000
 30
0.0
 0
VERTEX
 8
WIRE
 10
  1.6000
 20
  6.1000
 30
0.0
 0
SEQEND
 8
WIRE
 0
POLYLINE
 8
WIRE
 66
1
 10
0.0
 20
0.0
 30
0.0
 0
VERTEX
 8
WIRE
 10
  0.6000
 20
  4.1000
 30
0.0
 0
VERTEX
 8
WIRE
 10
  0.6000
 20
  4.4000
 30
0.0
 0
SEQEND
 8
WIRE
 0
POLYLINE
 8
WIRE
 66
1
 70
1
 10
0.0
 20
0.0
 30
0.0
 40
  0.0200
 41
  0.0200
 0
VERTEX
 8
WIRE
 10
  0.5900
 20
  4.4000
 30
0.0
 42
1.0
 0
VERTEX
 8
WIRE
 10
  0.6100
 20
  4.4000
 30
0.0
 42
1.0
 0
SEQEND
 8
WIRE
 0
POLYLINE
 8
WIRE
 66
1
 10
0.0
 20
0.0
 30
0.0
 0
VERTEX
 8
WIRE
 10
  1.6000
 20
  4.1000
 30
0.0
 0
VERTEX
 8
WIRE
 10
  0.6000
 20
  4.1000
 30
0.0
 0
SEQEND
 8
WIRE
 0
POLYLINE
 8
WIRE
 66
1
 10
0.0
 20
0.0
 30
0.0
 0
VERTEX
 8
WIRE
 10
  1.6000
 20
  4.2000
 30
0.0
 0
VERTEX
 8
WIRE
 10
  1.0000
 20
  4.2000
 30
0.0
 0
SEQEND
 8
WIRE
 0
POLYLINE
 8
WIRE
 66
1
 10
0.0
 20
0.0
 30
0.0
 0
VERTEX
 8
WIRE
 10
  1.0000
 20
  4.2000
 30
0.0
 0
VERTEX
 8
WIRE
 10
  1.0000
 20
  4.4000
 30
0.0
 0
SEQEND
 8
WIRE
 0
POLYLINE
 8
WIRE
 66
1
 70
1
 10
0.0
 20
0.0
 30
0.0
 40
  0.0200
 41
  0.0200
 0
VERTEX
 8
WIRE
 10
  0.9900
 20
  4.4000
 30
0.0
 42
1.0
 0
VERTEX
 8
WIRE
 10
  1.0100
 20
  4.4000
 30
0.0
 42
1.0
 0
SEQEND
 8
WIRE
 0
POLYLINE
 8
WIRE
 66
1
 10
0.0
 20
0.0
 30
0.0
 0
VERTEX
 8
WIRE
 10
  1.0000
 20
  4.4000
 30
0.0
 0
VERTEX
 8
WIRE
 10
  1.0000
 20
  4.6000
 30
0.0
 0
SEQEND
 8
WIRE
 0
POLYLINE
 8
WIRE
 66
1
 10
0.0
 20
0.0
 30
0.0
 0
VERTEX
 8
WIRE
 10
  1.0000
 20
  5.0000
 30
0.0
 0
VERTEX
 8
WIRE
 10
  0.6000
 20
  5.0000
 30
0.0
 0
SEQEND
 8
WIRE
 0
POLYLINE
 8
WIRE
 66
1
 10
0.0
 20
0.0
 30
0.0
 0
VERTEX
 8
WIRE
 10
  3.8000
 20
  6.2000
 30
0.0
 0
VERTEX
 8
WIRE
 10
  3.5000
 20
  6.2000
 30
0.0
 0
SEQEND
 8
WIRE
 0
TEXT
 8
WIRETEXT
 10
  3.5000
 20
  6.2300
 30
0.0
 40
  0.0514
 1
VCC
 0
POLYLINE
 8
WIRE
 66
1
 10
0.0
 20
0.0
 30
0.0
 0
VERTEX
 8
WIRE
 10
  3.8000
 20
  5.8000
 30
0.0
 0
VERTEX
 8
WIRE
 10
  3.5000
 20
  5.8000
 30
0.0
 0
SEQEND
 8
WIRE
 0
TEXT
 8
WIRETEXT
 10
  3.5000
 20
  5.8300
 30
0.0
 40
  0.0514
 1
GND
 0
POLYLINE
 8
WIRE
 66
1
 10
0.0
 20
0.0
 30
0.0
 0
VERTEX
 8
WIRE
 10
  1.6000
 20
  4.4000
 30
0.0
 0
VERTEX
 8
WIRE
 10
  1.3000
 20
  4.4000
 30
0.0
 0
SEQEND
 8
WIRE
 0
TEXT
 8
WIRETEXT
 10
  1.3000
 20
  4.4300
 30
0.0
 40
  0.0514
 1
GND
 0
POLYLINE
 8
WIRE
 66
1
 10
0.0
 20
0.0
 30
0.0
 0
VERTEX
 8
WIRE
 10
  1.6000
 20
  4.6000
 30
0.0
 0
VERTEX
 8
WIRE
 10
  1.3000
 20
  4.6000
 30
0.0
 0
SEQEND
 8
WIRE
 0
TEXT
 8
WIRETEXT
 10
  1.3000
 20
  4.6300
 30
0.0
 40
  0.0514
 1
VCC
 0
POLYLINE
 8
WIRE
 66
1
 10
0.0
 20
0.0
 30
0.0
 0
VERTEX
 8
WIRE
 10
  8.3000
 20
  4.9000
 30
0.0
 0
VERTEX
 8
WIRE
 10
  8.0000
 20
  4.9000
 30
0.0
 0
SEQEND
 8
WIRE
 0
TEXT
 8
WIRETEXT
 10
  8.0000
 20
  4.9300
 30
0.0
 40
  0.0514
 1
GND
 0
POLYLINE
 8
WIRE
 66
1
 10
0.0
 20
0.0
 30
0.0
 0
VERTEX
 8
WIRE
 10
  4.5000
 20
  4.1000
 30
0.0
 0
VERTEX
 8
WIRE
 10
  3.8000
 20
  4.1000
 30
0.0
 0
SEQEND
 8
WIRE
 0
POLYLINE
 8
WIRE
 66
1
 70
1
 10
0.0
 20
0.0
 30
0.0
 40
  0.0200
 41
  0.0200
 0
VERTEX
 8
WIRE
 10
  3.7900
 20
  4.1000
 30
0.0
 42
1.0
 0
VERTEX
 8
WIRE
 10
  3.8100
 20
  4.1000
 30
0.0
 42
1.0
 0
SEQEND
 8
WIRE
 0
TEXT
 8
WIRETEXT
 10
  4.2000
 20
  4.1300
 30
0.0
 40
  0.0514
 1
GND
 0
POLYLINE
 8
WIRE
 66
1
 10
0.0
 20
0.0
 30
0.0
 0
VERTEX
 8
WIRE
 10
  4.5000
 20
  4.4000
 30
0.0
 0
VERTEX
 8
WIRE
 10
  3.8000
 20
  4.4000
 30
0.0
 0
SEQEND
 8
WIRE
 0
POLYLINE
 8
WIRE
 66
1
 70
1
 10
0.0
 20
0.0
 30
0.0
 40
  0.0200
 41
  0.0200
 0
VERTEX
 8
WIRE
 10
  3.7900
 20
  4.4000
 30
0.0
 42
1.0
 0
VERTEX
 8
WIRE
 10
  3.8100
 20
  4.4000
 30
0.0
 42
1.0
 0
SEQEND
 8
WIRE
 0
TEXT
 8
WIRETEXT
 10
  4.2000
 20
  4.4300
 30
0.0
 40
  0.0514
 1
VCC
 0
POLYLINE
 8
WIRE
 66
1
 10
0.0
 20
0.0
 30
0.0
 0
VERTEX
 8
WIRE
 10
  8.4000
 20
  3.4000
 30
0.0
 0
VERTEX
 8
WIRE
 10
  8.0000
 20
  3.4000
 30
0.0
 0
SEQEND
 8
WIRE
 0
TEXT
 8
WIRETEXT
 10
  8.1000
 20
  3.4300
 30
0.0
 40
  0.0514
 1
VCC
 0
POLYLINE
 8
WIRE
 66
1
 10
0.0
 20
0.0
 30
0.0
 0
VERTEX
 8
WIRE
 10
  8.4000
 20
  3.1000
 30
0.0
 0
VERTEX
 8
WIRE
 10
  7.7000
 20
  3.1000
 30
0.0
 0
SEQEND
 8
WIRE
 0
TEXT
 8
WIRETEXT
 10
  8.1000
 20
  3.1300
 30
0.0
 40
  0.0514
 1
GND
 0
POLYLINE
 8
WIRE
 66
1
 10
0.0
 20
0.0
 30
0.0
 0
VERTEX
 8
WIRE
 10
  0.6000
 20
  5.0000
 30
0.0
 0
VERTEX
 8
WIRE
 10
  0.3000
 20
  5.0000
 30
0.0
 0
SEQEND
 8
WIRE
 0
POLYLINE
 8
WIRE
 66
1
 70
1
 10
0.0
 20
0.0
 30
0.0
 40
  0.0200
 41
  0.0200
 0
VERTEX
 8
WIRE
 10
  0.5900
 20
  5.0000
 30
0.0
 42
1.0
 0
VERTEX
 8
WIRE
 10
  0.6100
 20
  5.0000
 30
0.0
 42
1.0
 0
SEQEND
 8
WIRE
 0
TEXT
 8
WIRETEXT
 10
  0.3000
 20
  5.0300
 30
0.0
 40
  0.0514
 1
GND
 0
POLYLINE
 8
WIRE
 66
1
 10
0.0
 20
0.0
 30
0.0
 0
VERTEX
 8
WIRE
 10
  0.6000
 20
  4.9000
 30
0.0
 0
VERTEX
 8
WIRE
 10
  0.6000
 20
  5.0000
 30
0.0
 0
SEQEND
 8
WIRE
 0
POLYLINE
 8
WIRE
 66
1
 10
0.0
 20
0.0
 30
0.0
 0
VERTEX
 8
WIRE
 10
  1.0000
 20
  4.9000
 30
0.0
 0
VERTEX
 8
WIRE
 10
  1.0000
 20
  5.0000
 30
0.0
 0
SEQEND
 8
WIRE
 0
POLYLINE
 8
WIRE
 66
1
 10
0.0
 20
0.0
 30
0.0
 0
VERTEX
 8
WIRE
 10
  3.2000
 20
  5.2000
 30
0.0
 0
VERTEX
 8
WIRE
 10
  3.2000
 20
  5.9000
 30
0.0
 0
SEQEND
 8
WIRE
 0
POLYLINE
 8
WIRE
 66
1
 10
0.0
 20
0.0
 30
0.0
 0
VERTEX
 8
WIRE
 10
  3.8000
 20
  5.9000
 30
0.0
 0
VERTEX
 8
WIRE
 10
  3.2000
 20
  5.9000
 30
0.0
 0
SEQEND
 8
WIRE
 0
POLYLINE
 8
WIRE
 66
1
 10
0.0
 20
0.0
 30
0.0
 0
VERTEX
 8
WIRE
 10
  3.2000
 20
  5.2000
 30
0.0
 0
VERTEX
 8
WIRE
 10
  3.0000
 20
  5.2000
 30
0.0
 0
SEQEND
 8
WIRE
 0
POLYLINE
 8
WIRE
 66
1
 10
0.0
 20
0.0
 30
0.0
 0
VERTEX
 8
WIRE
 10
  3.1000
 20
  5.8000
 30
0.0
 0
VERTEX
 8
WIRE
 10
  2.8000
 20
  5.8000
 30
0.0
 0
SEQEND
 8
WIRE
 0
TEXT
 8
WIRETEXT
 10
  2.8000
 20
  5.8300
 30
0.0
 40
  0.0514
 1
VCC
 0
POLYLINE
 8
WIRE
 66
1
 10
0.0
 20
0.0
 30
0.0
 0
VERTEX
 8
WIRE
 10
  3.8000
 20
  6.0000
 30
0.0
 0
VERTEX
 8
WIRE
 10
  3.3000
 20
  6.0000
 30
0.0
 0
SEQEND
 8
WIRE
 0
POLYLINE
 8
WIRE
 66
1
 10
0.0
 20
0.0
 30
0.0
 0
VERTEX
 8
WIRE
 10
  3.3000
 20
  5.1000
 30
0.0
 0
VERTEX
 8
WIRE
 10
  3.3000
 20
  6.0000
 30
0.0
 0
SEQEND
 8
WIRE
 0
POLYLINE
 8
WIRE
 66
1
 10
0.0
 20
0.0
 30
0.0
 0
VERTEX
 8
WIRE
 10
  3.3000
 20
  5.1000
 30
0.0
 0
VERTEX
 8
WIRE
 10
  3.0000
 20
  5.1000
 30
0.0
 0
SEQEND
 8
WIRE
 0
POLYLINE
 8
WIRE
 66
1
 10
0.0
 20
0.0
 30
0.0
 0
VERTEX
 8
WIRE
 10
  5.7000
 20
  5.2000
 30
0.0
 0
VERTEX
 8
WIRE
 10
  5.4000
 20
  5.2000
 30
0.0
 0
SEQEND
 8
WIRE
 0
TEXT
 8
WIRETEXT
 10
  5.4000
 20
  5.2300
 30
0.0
 40
  0.0514
 1
GND
 0
POLYLINE
 8
WIRE
 66
1
 10
0.0
 20
0.0
 30
0.0
 0
VERTEX
 8
WIRE
 10
  5.7000
 20
  4.9000
 30
0.0
 0
VERTEX
 8
WIRE
 10
  5.4000
 20
  4.9000
 30
0.0
 0
SEQEND
 8
WIRE
 0
POLYLINE
 8
WIRE
 66
1
 70
1
 10
0.0
 20
0.0
 30
0.0
 40
  0.0200
 41
  0.0200
 0
VERTEX
 8
WIRE
 10
  5.6900
 20
  4.9000
 30
0.0
 42
1.0
 0
VERTEX
 8
WIRE
 10
  5.7100
 20
  4.9000
 30
0.0
 42
1.0
 0
SEQEND
 8
WIRE
 0
TEXT
 8
WIRETEXT
 10
  5.4000
 20
  4.9300
 30
0.0
 40
  0.0514
 1
VCC
 0
POLYLINE
 8
WIRE
 66
1
 10
0.0
 20
0.0
 30
0.0
 0
VERTEX
 8
WIRE
 10
  6.5000
 20
  5.1000
 30
0.0
 0
VERTEX
 8
WIRE
 10
  6.1000
 20
  5.1000
 30
0.0
 0
SEQEND
 8
WIRE
 0
POLYLINE
 8
WIRE
 66
1
 10
0.0
 20
0.0
 30
0.0
 0
VERTEX
 8
WIRE
 10
  6.1000
 20
  5.1000
 30
0.0
 0
VERTEX
 8
WIRE
 10
  6.1000
 20
  5.2000
 30
0.0
 0
SEQEND
 8
WIRE
 0
POLYLINE
 8
WIRE
 66
1
 10
0.0
 20
0.0
 30
0.0
 0
VERTEX
 8
WIRE
 10
  6.1000
 20
  5.2000
 30
0.0
 0
VERTEX
 8
WIRE
 10
  5.7000
 20
  5.2000
 30
0.0
 0
SEQEND
 8
WIRE
 0
POLYLINE
 8
WIRE
 66
1
 70
1
 10
0.0
 20
0.0
 30
0.0
 40
  0.0200
 41
  0.0200
 0
VERTEX
 8
WIRE
 10
  5.6900
 20
  5.2000
 30
0.0
 42
1.0
 0
VERTEX
 8
WIRE
 10
  5.7100
 20
  5.2000
 30
0.0
 42
1.0
 0
SEQEND
 8
WIRE
 0
POLYLINE
 8
WIRE
 66
1
 10
0.0
 20
0.0
 30
0.0
 0
VERTEX
 8
WIRE
 10
  6.1000
 20
  4.9000
 30
0.0
 0
VERTEX
 8
WIRE
 10
  5.7000
 20
  4.9000
 30
0.0
 0
SEQEND
 8
WIRE
 0
POLYLINE
 8
WIRE
 66
1
 10
0.0
 20
0.0
 30
0.0
 0
VERTEX
 8
WIRE
 10
  6.1000
 20
  4.9000
 30
0.0
 0
VERTEX
 8
WIRE
 10
  6.1000
 20
  5.0000
 30
0.0
 0
SEQEND
 8
WIRE
 0
POLYLINE
 8
WIRE
 66
1
 10
0.0
 20
0.0
 30
0.0
 0
VERTEX
 8
WIRE
 10
  6.5000
 20
  5.0000
 30
0.0
 0
VERTEX
 8
WIRE
 10
  6.1000
 20
  5.0000
 30
0.0
 0
SEQEND
 8
WIRE
 0
POLYLINE
 8
WIRE
 66
1
 10
0.0
 20
0.0
 30
0.0
 0
VERTEX
 8
WIRE
 10
  6.5000
 20
  4.9000
 30
0.0
 0
VERTEX
 8
WIRE
 10
  6.3000
 20
  4.9000
 30
0.0
 0
SEQEND
 8
WIRE
 0
POLYLINE
 8
WIRE
 66
1
 10
0.0
 20
0.0
 30
0.0
 0
VERTEX
 8
WIRE
 10
  6.3000
 20
  4.6000
 30
0.0
 0
VERTEX
 8
WIRE
 10
  6.3000
 20
  4.9000
 30
0.0
 0
SEQEND
 8
WIRE
 0
POLYLINE
 8
WIRE
 66
1
 10
0.0
 20
0.0
 30
0.0
 0
VERTEX
 8
WIRE
 10
  6.3000
 20
  4.6000
 30
0.0
 0
VERTEX
 8
WIRE
 10
  3.0000
 20
  4.6000
 30
0.0
 0
SEQEND
 8
WIRE
 0
POLYLINE
 8
WIRE
 66
1
 10
0.0
 20
0.0
 30
0.0
 0
VERTEX
 8
WIRE
 10
  6.5000
 20
  5.2000
 30
0.0
 0
VERTEX
 8
WIRE
 10
  6.3000
 20
  5.2000
 30
0.0
 0
SEQEND
 8
WIRE
 0
POLYLINE
 8
WIRE
 66
1
 10
0.0
 20
0.0
 30
0.0
 0
VERTEX
 8
WIRE
 10
  6.3000
 20
  5.2000
 30
0.0
 0
VERTEX
 8
WIRE
 10
  6.3000
 20
  5.4000
 30
0.0
 0
SEQEND
 8
WIRE
 0
POLYLINE
 8
WIRE
 66
1
 10
0.0
 20
0.0
 30
0.0
 0
VERTEX
 8
WIRE
 10
  6.3000
 20
  5.4000
 30
0.0
 0
VERTEX
 8
WIRE
 10
  4.9000
 20
  5.4000
 30
0.0
 0
SEQEND
 8
WIRE
 0
POLYLINE
 8
WIRE
 66
1
 10
0.0
 20
0.0
 30
0.0
 0
VERTEX
 8
WIRE
 10
  4.9000
 20
  4.5000
 30
0.0
 0
VERTEX
 8
WIRE
 10
  4.9000
 20
  5.4000
 30
0.0
 0
SEQEND
 8
WIRE
 0
POLYLINE
 8
WIRE
 66
1
 10
0.0
 20
0.0
 30
0.0
 0
VERTEX
 8
WIRE
 10
  4.9000
 20
  4.5000
 30
0.0
 0
VERTEX
 8
WIRE
 10
  3.0000
 20
  4.5000
 30
0.0
 0
SEQEND
 8
WIRE
 0
POLYLINE
 8
WIRE
 66
1
 10
0.0
 20
0.0
 30
0.0
 0
VERTEX
 8
WIRE
 10
  8.3000
 20
  5.1000
 30
0.0
 0
VERTEX
 8
WIRE
 10
  7.7000
 20
  5.1000
 30
0.0
 0
SEQEND
 8
WIRE
 0
POLYLINE
 8
WIRE
 66
1
 10
0.0
 20
0.0
 30
0.0
 0
VERTEX
 8
WIRE
 10
  8.3000
 20
  5.0000
 30
0.0
 0
VERTEX
 8
WIRE
 10
  7.7000
 20
  5.0000
 30
0.0
 0
SEQEND
 8
WIRE
 0
POLYLINE
 8
WIRE
 66
1
 10
0.0
 20
0.0
 30
0.0
 0
VERTEX
 8
WIRE
 10
  6.4000
 20
  3.5000
 30
0.0
 0
VERTEX
 8
WIRE
 10
  6.3000
 20
  3.5000
 30
0.0
 0
SEQEND
 8
WIRE
 0
POLYLINE
 8
WIRE
 66
1
 10
0.0
 20
0.0
 30
0.0
 0
VERTEX
 8
WIRE
 10
  6.4000
 20
  3.4000
 30
0.0
 0
VERTEX
 8
WIRE
 10
  6.4000
 20
  3.5000
 30
0.0
 0
SEQEND
 8
WIRE
 0
POLYLINE
 8
WIRE
 66
1
 10
0.0
 20
0.0
 30
0.0
 0
VERTEX
 8
WIRE
 10
  6.4000
 20
  3.4000
 30
0.0
 0
VERTEX
 8
WIRE
 10
  6.3000
 20
  3.4000
 30
0.0
 0
SEQEND
 8
WIRE
 0
POLYLINE
 8
WIRE
 66
1
 10
0.0
 20
0.0
 30
0.0
 0
VERTEX
 8
WIRE
 10
  7.7000
 20
  1.7000
 30
0.0
 0
VERTEX
 8
WIRE
 10
  7.7000
 20
  2.6000
 30
0.0
 0
SEQEND
 8
WIRE
 0
POLYLINE
 8
WIRE
 66
1
 70
1
 10
0.0
 20
0.0
 30
0.0
 40
  0.0200
 41
  0.0200
 0
VERTEX
 8
WIRE
 10
  7.6900
 20
  2.6000
 30
0.0
 42
1.0
 0
VERTEX
 8
WIRE
 10
  7.7100
 20
  2.6000
 30
0.0
 42
1.0
 0
SEQEND
 8
WIRE
 0
POLYLINE
 8
WIRE
 66
1
 10
0.0
 20
0.0
 30
0.0
 0
VERTEX
 8
WIRE
 10
  7.7000
 20
  1.7000
 30
0.0
 0
VERTEX
 8
WIRE
 10
  6.6000
 20
  1.7000
 30
0.0
 0
SEQEND
 8
WIRE
 0
POLYLINE
 8
WIRE
 66
1
 70
1
 10
0.0
 20
0.0
 30
0.0
 40
  0.0200
 41
  0.0200
 0
VERTEX
 8
WIRE
 10
  6.5900
 20
  1.7000
 30
0.0
 42
1.0
 0
VERTEX
 8
WIRE
 10
  6.6100
 20
  1.7000
 30
0.0
 42
1.0
 0
SEQEND
 8
WIRE
 0
POLYLINE
 8
WIRE
 66
1
 10
0.0
 20
0.0
 30
0.0
 0
VERTEX
 8
WIRE
 10
  5.1000
 20
  1.7000
 30
0.0
 0
VERTEX
 8
WIRE
 10
  5.0000
 20
  1.7000
 30
0.0
 0
SEQEND
 8
WIRE
 0
POLYLINE
 8
WIRE
 66
1
 10
0.0
 20
0.0
 30
0.0
 0
VERTEX
 8
WIRE
 10
  6.6000
 20
  1.7000
 30
0.0
 0
VERTEX
 8
WIRE
 10
  5.4000
 20
  1.7000
 30
0.0
 0
SEQEND
 8
WIRE
 0
POLYLINE
 8
WIRE
 66
1
 70
1
 10
0.0
 20
0.0
 30
0.0
 40
  0.0200
 41
  0.0200
 0
VERTEX
 8
WIRE
 10
  5.3900
 20
  1.7000
 30
0.0
 42
1.0
 0
VERTEX
 8
WIRE
 10
  5.4100
 20
  1.7000
 30
0.0
 42
1.0
 0
SEQEND
 8
WIRE
 0
POLYLINE
 8
WIRE
 66
1
 10
0.0
 20
0.0
 30
0.0
 0
VERTEX
 8
WIRE
 10
  5.2000
 20
  1.7000
 30
0.0
 0
VERTEX
 8
WIRE
 10
  5.1000
 20
  1.7000
 30
0.0
 0
SEQEND
 8
WIRE
 0
POLYLINE
 8
WIRE
 66
1
 70
1
 10
0.0
 20
0.0
 30
0.0
 40
  0.0200
 41
  0.0200
 0
VERTEX
 8
WIRE
 10
  5.0900
 20
  1.7000
 30
0.0
 42
1.0
 0
VERTEX
 8
WIRE
 10
  5.1100
 20
  1.7000
 30
0.0
 42
1.0
 0
SEQEND
 8
WIRE
 0
POLYLINE
 8
WIRE
 66
1
 10
0.0
 20
0.0
 30
0.0
 0
VERTEX
 8
WIRE
 10
  5.4000
 20
  1.7000
 30
0.0
 0
VERTEX
 8
WIRE
 10
  5.3000
 20
  1.7000
 30
0.0
 0
SEQEND
 8
WIRE
 0
POLYLINE
 8
WIRE
 66
1
 70
1
 10
0.0
 20
0.0
 30
0.0
 40
  0.0200
 41
  0.0200
 0
VERTEX
 8
WIRE
 10
  5.2900
 20
  1.7000
 30
0.0
 42
1.0
 0
VERTEX
 8
WIRE
 10
  5.3100
 20
  1.7000
 30
0.0
 42
1.0
 0
SEQEND
 8
WIRE
 0
POLYLINE
 8
WIRE
 66
1
 10
0.0
 20
0.0
 30
0.0
 0
VERTEX
 8
WIRE
 10
  5.3000
 20
  1.7000
 30
0.0
 0
VERTEX
 8
WIRE
 10
  5.2000
 20
  1.7000
 30
0.0
 0
SEQEND
 8
WIRE
 0
POLYLINE
 8
WIRE
 66
1
 70
1
 10
0.0
 20
0.0
 30
0.0
 40
  0.0200
 41
  0.0200
 0
VERTEX
 8
WIRE
 10
  5.1900
 20
  1.7000
 30
0.0
 42
1.0
 0
VERTEX
 8
WIRE
 10
  5.2100
 20
  1.7000
 30
0.0
 42
1.0
 0
SEQEND
 8
WIRE
 0
POLYLINE
 8
WIRE
 66
1
 10
0.0
 20
0.0
 30
0.0
 0
VERTEX
 8
WIRE
 10
  6.6000
 20
  2.1000
 30
0.0
 0
VERTEX
 8
WIRE
 10
  6.3000
 20
  2.1000
 30
0.0
 0
SEQEND
 8
WIRE
 0
POLYLINE
 8
WIRE
 66
1
 10
0.0
 20
0.0
 30
0.0
 0
VERTEX
 8
WIRE
 10
  6.6000
 20
  2.0000
 30
0.0
 0
VERTEX
 8
WIRE
 10
  6.6000
 20
  2.1000
 30
0.0
 0
SEQEND
 8
WIRE
 0
POLYLINE
 8
WIRE
 66
1
 10
0.0
 20
0.0
 30
0.0
 0
VERTEX
 8
WIRE
 10
  6.9000
 20
  2.6000
 30
0.0
 0
VERTEX
 8
WIRE
 10
  6.5000
 20
  2.6000
 30
0.0
 0
SEQEND
 8
WIRE
 0
POLYLINE
 8
WIRE
 66
1
 10
0.0
 20
0.0
 30
0.0
 0
VERTEX
 8
WIRE
 10
  7.3000
 20
  2.6000
 30
0.0
 0
VERTEX
 8
WIRE
 10
  7.3000
 20
  2.8000
 30
0.0
 0
SEQEND
 8
WIRE
 0
POLYLINE
 8
WIRE
 66
1
 70
1
 10
0.0
 20
0.0
 30
0.0
 40
  0.0200
 41
  0.0200
 0
VERTEX
 8
WIRE
 10
  7.2900
 20
  2.6000
 30
0.0
 42
1.0
 0
VERTEX
 8
WIRE
 10
  7.3100
 20
  2.6000
 30
0.0
 42
1.0
 0
SEQEND
 8
WIRE
 0
POLYLINE
 8
WIRE
 66
1
 10
0.0
 20
0.0
 30
0.0
 0
VERTEX
 8
WIRE
 10
  7.7000
 20
  2.6000
 30
0.0
 0
VERTEX
 8
WIRE
 10
  7.3000
 20
  2.6000
 30
0.0
 0
SEQEND
 8
WIRE
 0
POLYLINE
 8
WIRE
 66
1
 10
0.0
 20
0.0
 30
0.0
 0
VERTEX
 8
WIRE
 10
  6.9000
 20
  2.6000
 30
0.0
 0
VERTEX
 8
WIRE
 10
  6.9000
 20
  2.7000
 30
0.0
 0
SEQEND
 8
WIRE
 0
POLYLINE
 8
WIRE
 66
1
 10
0.0
 20
0.0
 30
0.0
 0
VERTEX
 8
WIRE
 10
  7.3000
 20
  2.6000
 30
0.0
 0
VERTEX
 8
WIRE
 10
  6.9000
 20
  2.6000
 30
0.0
 0
SEQEND
 8
WIRE
 0
POLYLINE
 8
WIRE
 66
1
 70
1
 10
0.0
 20
0.0
 30
0.0
 40
  0.0200
 41
  0.0200
 0
VERTEX
 8
WIRE
 10
  6.8900
 20
  2.6000
 30
0.0
 42
1.0
 0
VERTEX
 8
WIRE
 10
  6.9100
 20
  2.6000
 30
0.0
 42
1.0
 0
SEQEND
 8
WIRE
 0
POLYLINE
 8
WIRE
 66
1
 10
0.0
 20
0.0
 30
0.0
 0
VERTEX
 8
WIRE
 10
  7.3000
 20
  3.4000
 30
0.0
 0
VERTEX
 8
WIRE
 10
  6.4000
 20
  3.4000
 30
0.0
 0
SEQEND
 8
WIRE
 0
POLYLINE
 8
WIRE
 66
1
 70
1
 10
0.0
 20
0.0
 30
0.0
 40
  0.0200
 41
  0.0200
 0
VERTEX
 8
WIRE
 10
  7.2900
 20
  3.4000
 30
0.0
 42
1.0
 0
VERTEX
 8
WIRE
 10
  7.3100
 20
  3.4000
 30
0.0
 42
1.0
 0
SEQEND
 8
WIRE
 0
POLYLINE
 8
WIRE
 66
1
 70
1
 10
0.0
 20
0.0
 30
0.0
 40
  0.0200
 41
  0.0200
 0
VERTEX
 8
WIRE
 10
  6.3900
 20
  3.4000
 30
0.0
 42
1.0
 0
VERTEX
 8
WIRE
 10
  6.4100
 20
  3.4000
 30
0.0
 42
1.0
 0
SEQEND
 8
WIRE
 0
POLYLINE
 8
WIRE
 66
1
 10
0.0
 20
0.0
 30
0.0
 0
VERTEX
 8
WIRE
 10
  7.3000
 20
  3.1000
 30
0.0
 0
VERTEX
 8
WIRE
 10
  7.3000
 20
  3.4000
 30
0.0
 0
SEQEND
 8
WIRE
 0
POLYLINE
 8
WIRE
 66
1
 10
0.0
 20
0.0
 30
0.0
 0
VERTEX
 8
WIRE
 10
  7.4000
 20
  3.4000
 30
0.0
 0
VERTEX
 8
WIRE
 10
  7.3000
 20
  3.4000
 30
0.0
 0
SEQEND
 8
WIRE
 0
POLYLINE
 8
WIRE
 66
1
 10
0.0
 20
0.0
 30
0.0
 0
VERTEX
 8
WIRE
 10
  8.4000
 20
  3.3000
 30
0.0
 0
VERTEX
 8
WIRE
 10
  6.9000
 20
  3.3000
 30
0.0
 0
SEQEND
 8
WIRE
 0
POLYLINE
 8
WIRE
 66
1
 70
1
 10
0.0
 20
0.0
 30
0.0
 40
  0.0200
 41
  0.0200
 0
VERTEX
 8
WIRE
 10
  6.8900
 20
  3.3000
 30
0.0
 42
1.0
 0
VERTEX
 8
WIRE
 10
  6.9100
 20
  3.3000
 30
0.0
 42
1.0
 0
SEQEND
 8
WIRE
 0
TEXT
 8
WIRETEXT
 10
  8.1000
 20
  3.3300
 30
0.0
 40
  0.0514
 1
USB D-
 0
POLYLINE
 8
WIRE
 66
1
 10
0.0
 20
0.0
 30
0.0
 0
VERTEX
 8
WIRE
 10
  6.9000
 20
  3.0000
 30
0.0
 0
VERTEX
 8
WIRE
 10
  6.9000
 20
  3.3000
 30
0.0
 0
SEQEND
 8
WIRE
 0
POLYLINE
 8
WIRE
 66
1
 10
0.0
 20
0.0
 30
0.0
 0
VERTEX
 8
WIRE
 10
  6.9000
 20
  3.3000
 30
0.0
 0
VERTEX
 8
WIRE
 10
  6.3000
 20
  3.3000
 30
0.0
 0
SEQEND
 8
WIRE
 0
POLYLINE
 8
WIRE
 66
1
 10
0.0
 20
0.0
 30
0.0
 0
VERTEX
 8
WIRE
 10
  8.4000
 20
  3.2000
 30
0.0
 0
VERTEX
 8
WIRE
 10
  6.5000
 20
  3.2000
 30
0.0
 0
SEQEND
 8
WIRE
 0
TEXT
 8
WIRETEXT
 10
  8.1000
 20
  3.2300
 30
0.0
 40
  0.0514
 1
USB D+
 0
TEXT
 8
WIRETEXT
 10
  8.1000
 20
  3.2300
 30
0.0
 40
  0.0514
 1
USB D+
 0
POLYLINE
 8
WIRE
 66
1
 10
0.0
 20
0.0
 30
0.0
 0
VERTEX
 8
WIRE
 10
  6.5000
 20
  2.9000
 30
0.0
 0
VERTEX
 8
WIRE
 10
  6.5000
 20
  3.2000
 30
0.0
 0
SEQEND
 8
WIRE
 0
POLYLINE
 8
WIRE
 66
1
 70
1
 10
0.0
 20
0.0
 30
0.0
 40
  0.0200
 41
  0.0200
 0
VERTEX
 8
WIRE
 10
  6.4900
 20
  3.2000
 30
0.0
 42
1.0
 0
VERTEX
 8
WIRE
 10
  6.5100
 20
  3.2000
 30
0.0
 42
1.0
 0
SEQEND
 8
WIRE
 0
POLYLINE
 8
WIRE
 66
1
 10
0.0
 20
0.0
 30
0.0
 0
VERTEX
 8
WIRE
 10
  6.5000
 20
  3.2000
 30
0.0
 0
VERTEX
 8
WIRE
 10
  6.3000
 20
  3.2000
 30
0.0
 0
SEQEND
 8
WIRE
 0
POLYLINE
 8
WIRE
 66
1
 10
0.0
 20
0.0
 30
0.0
 0
VERTEX
 8
WIRE
 10
  7.7000
 20
  2.6000
 30
0.0
 0
VERTEX
 8
WIRE
 10
  7.7000
 20
  3.1000
 30
0.0
 0
SEQEND
 8
WIRE
 0
POLYLINE
 8
WIRE
 66
1
 10
0.0
 20
0.0
 30
0.0
 0
VERTEX
 8
WIRE
 10
  3.6000
 20
  4.0000
 30
0.0
 0
VERTEX
 8
WIRE
 10
  3.0000
 20
  4.0000
 30
0.0
 0
SEQEND
 8
WIRE
 0
POLYLINE
 8
WIRE
 66
1
 10
0.0
 20
0.0
 30
0.0
 0
VERTEX
 8
WIRE
 10
  3.6000
 20
  3.5000
 30
0.0
 0
VERTEX
 8
WIRE
 10
  3.6000
 20
  4.0000
 30
0.0
 0
SEQEND
 8
WIRE
 0
POLYLINE
 8
WIRE
 66
1
 10
0.0
 20
0.0
 30
0.0
 0
VERTEX
 8
WIRE
 10
  4.1000
 20
  3.5000
 30
0.0
 0
VERTEX
 8
WIRE
 10
  3.6000
 20
  3.5000
 30
0.0
 0
SEQEND
 8
WIRE
 0
POLYLINE
 8
WIRE
 66
1
 10
0.0
 20
0.0
 30
0.0
 0
VERTEX
 8
WIRE
 10
  4.1000
 20
  3.4000
 30
0.0
 0
VERTEX
 8
WIRE
 10
  3.5000
 20
  3.4000
 30
0.0
 0
SEQEND
 8
WIRE
 0
POLYLINE
 8
WIRE
 66
1
 10
0.0
 20
0.0
 30
0.0
 0
VERTEX
 8
WIRE
 10
  3.5000
 20
  3.4000
 30
0.0
 0
VERTEX
 8
WIRE
 10
  3.5000
 20
  3.9000
 30
0.0
 0
SEQEND
 8
WIRE
 0
POLYLINE
 8
WIRE
 66
1
 10
0.0
 20
0.0
 30
0.0
 0
VERTEX
 8
WIRE
 10
  3.5000
 20
  3.9000
 30
0.0
 0
VERTEX
 8
WIRE
 10
  3.0000
 20
  3.9000
 30
0.0
 0
SEQEND
 8
WIRE
 0
POLYLINE
 8
WIRE
 66
1
 10
0.0
 20
0.0
 30
0.0
 0
VERTEX
 8
WIRE
 10
  3.2000
 20
  4.3000
 30
0.0
 0
VERTEX
 8
WIRE
 10
  3.0000
 20
  4.3000
 30
0.0
 0
SEQEND
 8
WIRE
 0
POLYLINE
 8
WIRE
 66
1
 10
0.0
 20
0.0
 30
0.0
 0
VERTEX
 8
WIRE
 10
  3.2000
 20
  4.3000
 30
0.0
 0
VERTEX
 8
WIRE
 10
  3.2000
 20
  4.4000
 30
0.0
 0
SEQEND
 8
WIRE
 0
POLYLINE
 8
WIRE
 66
1
 10
0.0
 20
0.0
 30
0.0
 0
VERTEX
 8
WIRE
 10
  3.4000
 20
  4.4000
 30
0.0
 0
VERTEX
 8
WIRE
 10
  3.2000
 20
  4.4000
 30
0.0
 0
SEQEND
 8
WIRE
 0
POLYLINE
 8
WIRE
 66
1
 10
0.0
 20
0.0
 30
0.0
 0
VERTEX
 8
WIRE
 10
  3.4000
 20
  4.1000
 30
0.0
 0
VERTEX
 8
WIRE
 10
  3.2000
 20
  4.1000
 30
0.0
 0
SEQEND
 8
WIRE
 0
POLYLINE
 8
WIRE
 66
1
 10
0.0
 20
0.0
 30
0.0
 0
VERTEX
 8
WIRE
 10
  3.8000
 20
  4.1000
 30
0.0
 0
VERTEX
 8
WIRE
 10
  3.4000
 20
  4.1000
 30
0.0
 0
SEQEND
 8
WIRE
 0
POLYLINE
 8
WIRE
 66
1
 70
1
 10
0.0
 20
0.0
 30
0.0
 40
  0.0200
 41
  0.0200
 0
VERTEX
 8
WIRE
 10
  3.3900
 20
  4.1000
 30
0.0
 42
1.0
 0
VERTEX
 8
WIRE
 10
  3.4100
 20
  4.1000
 30
0.0
 42
1.0
 0
SEQEND
 8
WIRE
 0
POLYLINE
 8
WIRE
 66
1
 10
0.0
 20
0.0
 30
0.0
 0
VERTEX
 8
WIRE
 10
  3.2000
 20
  4.1000
 30
0.0
 0
VERTEX
 8
WIRE
 10
  3.2000
 20
  4.2000
 30
0.0
 0
SEQEND
 8
WIRE
 0
POLYLINE
 8
WIRE
 66
1
 10
0.0
 20
0.0
 30
0.0
 0
VERTEX
 8
WIRE
 10
  3.2000
 20
  4.2000
 30
0.0
 0
VERTEX
 8
WIRE
 10
  3.0000
 20
  4.2000
 30
0.0
 0
SEQEND
 8
WIRE
 0
POLYLINE
 8
WIRE
 66
1
 10
0.0
 20
0.0
 30
0.0
 0
VERTEX
 8
WIRE
 10
  1.6000
 20
  5.8000
 30
0.0
 0
VERTEX
 8
WIRE
 10
  1.6000
 20
  6.1000
 30
0.0
 0
SEQEND
 8
WIRE
 0
POLYLINE
 8
WIRE
 66
1
 10
0.0
 20
0.0
 30
0.0
 0
VERTEX
 8
WIRE
 10
  3.8000
 20
  4.4000
 30
0.0
 0
VERTEX
 8
WIRE
 10
  3.4000
 20
  4.4000
 30
0.0
 0
SEQEND
 8
WIRE
 0
POLYLINE
 8
WIRE
 66
1
 70
1
 10
0.0
 20
0.0
 30
0.0
 40
  0.0200
 41
  0.0200
 0
VERTEX
 8
WIRE
 10
  3.3900
 20
  4.4000
 30
0.0
 42
1.0
 0
VERTEX
 8
WIRE
 10
  3.4100
 20
  4.4000
 30
0.0
 42
1.0
 0
SEQEND
 8
WIRE
 0
POLYLINE
 8
WIRE
 66
1
 10
0.0
 20
0.0
 30
0.0
 0
VERTEX
 8
WIRE
 10
  0.6000
 20
  4.4000
 30
0.0
 0
VERTEX
 8
WIRE
 10
  0.6000
 20
  4.6000
 30
0.0
 0
SEQEND
 8
WIRE
 0
ENDSEC
 0
EOF
